<svg width="24" height="24" viewBox="0 0 24 24" fill="none" xmlns="http://www.w3.org/2000/svg">
    <path fill-rule="evenodd" clip-rule="evenodd" d="M12 1C5.92487 1 1 5.92487 1 12C1 18.0751 5.92487 23 12 23C18.0751 23 23 18.0751 23 12C23 5.92487 18.0751 1 12 1ZM12 4C7.58172 4 4 7.58172 4 12C4 16.4183 7.58172 20 12 20C16.4183 20 20 16.4183 20 12C20 7.58172 16.4183 4 12 4Z" fill="#267FF9"/>
    <path d="M20.4756 3.52444C18.2028 1.25166 15.1928 0 12 0C8.8072 0 5.79717 1.25166 3.52444 3.52444C1.25166 5.79717 0 8.8072 0 12C0 15.1928 1.25166 18.2028 3.52444 20.4756C5.79717 22.7483 8.8072 24 12 24C15.1928 24 18.2028 22.7483 20.4756 20.4756C22.7483 18.2028 24 15.1928 24 12C24 8.8072 22.7483 5.79717 20.4756 3.52444ZM12 22.5938C6.15858 22.5938 1.40625 17.8414 1.40625 12C1.40625 6.15858 6.15858 1.40625 12 1.40625C17.8414 1.40625 22.5938 6.15858 22.5938 12C22.5938 17.8414 17.8414 22.5938 12 22.5938Z" fill="#2F486A"/>
    <path d="M12 2.85938C6.95986 2.85938 2.85938 6.95986 2.85938 12C2.85938 17.0401 6.95986 21.1406 12 21.1406C17.0401 21.1406 21.1406 17.0401 21.1406 12C21.1406 6.95986 17.0401 2.85938 12 2.85938ZM12 19.7344C7.73527 19.7344 4.26562 16.2647 4.26562 12C4.26562 7.73527 7.73527 4.26562 12 4.26562C16.2647 4.26562 19.7344 7.73527 19.7344 12C19.7344 16.2647 16.2647 19.7344 12 19.7344Z" fill="#2F486A"/>
    <path d="M14.1094 9.88335C14.1094 10.2717 14.4242 10.5865 14.8125 10.5865C15.2008 10.5865 15.5156 10.2717 15.5156 9.88335C15.5156 9.10466 15.1129 8.35597 14.4106 7.82929C13.9309 7.46952 13.3407 7.22919 12.7031 7.12696V6.36768C12.7031 5.97936 12.3883 5.66455 12 5.66455C11.6117 5.66455 11.2969 5.97936 11.2969 6.36768V7.12696C10.6592 7.22919 10.069 7.46952 9.58941 7.82929C8.88713 8.35597 8.48438 9.10466 8.48438 9.88335C8.48438 10.662 8.88713 11.4107 9.58941 11.9374C10.0691 12.2972 10.6593 12.5375 11.2969 12.6397V15.4245C10.4869 15.2266 9.89062 14.7009 9.89062 14.1021C9.89062 13.7138 9.57581 13.399 9.1875 13.399C8.79919 13.399 8.48438 13.7138 8.48438 14.1021C8.48438 14.8808 8.88713 15.6294 9.58941 16.1562C10.0691 16.5159 10.6593 16.7563 11.2969 16.8585V17.6248C11.2969 18.0132 11.6117 18.328 12 18.328C12.3883 18.328 12.7031 18.0132 12.7031 17.6248V16.8585C13.3408 16.7563 13.931 16.5159 14.4106 16.1562C15.1129 15.6295 15.5156 14.8808 15.5156 14.1021C15.5156 13.3234 15.1129 12.5747 14.4106 12.048C13.9309 11.6883 13.3407 11.4479 12.7031 11.3457V8.56091C13.5131 8.75891 14.1094 9.28452 14.1094 9.88335ZM9.89062 9.88335C9.89062 9.28452 10.4869 8.75886 11.2969 8.56091V11.2057C10.4869 11.0078 9.89062 10.4822 9.89062 9.88335ZM14.1094 14.1021C14.1094 14.7009 13.5131 15.2266 12.7031 15.4245V12.7797C13.5131 12.9777 14.1094 13.5033 14.1094 14.1021Z" fill="#2F486A"/>
</svg>