<svg width="18" height="18" viewBox="0 0 18 18" fill="none" xmlns="http://www.w3.org/2000/svg">
    <path d="M15.9844 0C16.5156 0 16.9844 0.203125 17.3906 0.609375C17.7969 1.01563 18 1.48438 18 2.01562V15.9844C18 16.5156 17.7969 16.9844 17.3906 17.3906C16.9844 17.7969 16.5156 18 15.9844 18H2.01562C1.48438 18 1.01562 17.7969 0.609375 17.3906C0.203125 16.9844 0 16.5156 0 15.9844V2.01562C0 1.48438 0.203125 1.01563 0.609375 0.609375C1.01562 0.203125 1.48438 0 2.01562 0H15.9844ZM15.9844 2.01562H2.01562V15.9844H15.9844V2.01562Z" fill="#2F486A" fill-opacity="0.25"/>
</svg>
