<svg width="182" height="173" viewBox="0 0 182 173" fill="none" xmlns="http://www.w3.org/2000/svg">
    <path d="M130.132 155.544L132.808 154.787L137.11 161.314H132.808L130.216 159.99L130.132 155.544Z" fill="#2F486A"/>
    <path d="M82.42 142.356C82.42 142.356 78.6838 145.095 78.7327 147.515C78.7327 147.515 78.3357 152.615 79.3445 154.624L84.9652 159.748L95.3447 159.081L98.6948 144.352L82.42 142.356Z" fill="#1C70E3"/>
    <path d="M93.8139 145.628C93.8139 145.628 89.3325 144.574 87.7962 147.635L84.7424 153.282L90.1238 160.459L130.894 160.328L130.812 155.451L117.621 151.724C118.779 150.943 119.75 149.709 120.332 148.454C121.376 146.202 120.561 144.539 119.72 142.423C119.462 141.775 118.233 138.179 117.178 138.462C117.172 138.465 93.8139 145.628 93.8139 145.628Z" fill="#267FF9"/>
    <path d="M69.7891 89.8373L67.9073 86.4775L69.305 85.6089L71.1025 87.6237L71.5729 86.9049L72.8347 89.9761L71.5022 91.0761L69.7891 89.8373Z" fill="#FABD92"/>
    <path d="M97.1238 97.607L84.1937 101.084L72.7565 88.7936L70.2222 91.1079L80.7566 111.436L96.5501 108.231L97.1238 97.607Z" fill="#6AA9FF"/>
    <path d="M84.3804 134.144C87.1948 126.3 87.7359 117.987 88.7502 109.754C89.0493 107.325 89.3648 104.842 90.4498 102.65C91.6952 100.132 93.6639 98.8468 95.9264 98.1825C98.8088 97.3385 102.17 97.5018 105.142 97.4174C107.956 97.4201 110.102 108.088 112.802 113.312C114.458 116.514 116.179 119.357 117.254 122.826C118.284 126.155 119.269 129.542 119.821 132.989C120.653 138.195 123.092 141.89 120.593 143.57C120.367 143.638 120.15 143.703 119.943 143.769C115.891 145.075 111.709 146.004 107.472 146.423C103.712 146.796 99.9074 146.761 96.1575 146.268C91.0262 145.593 86.0636 144.702 81.6149 141.865C82.534 139.29 83.4585 136.717 84.3804 134.144Z" fill="#6AA9FF"/>
    <path d="M106.774 89.5821C105.33 84.6867 98.3254 82.7699 96.5008 88.346C95.9515 90.0204 95.598 91.8065 95.8754 93.5463C96.1555 95.2861 97.1562 96.9824 98.7442 97.742C98.7524 97.7474 98.7633 97.7502 98.7714 97.7556C98.6926 98.2021 98.6164 98.6487 98.5375 99.0952C98.5212 99.1905 98.5049 99.2966 98.5566 99.3811C98.6164 99.4763 98.7361 99.5036 98.8448 99.5226C99.3778 99.6207 99.9108 99.7187 100.444 99.814C100.708 99.863 100.982 99.9093 101.24 99.8357C101.806 99.6751 102.059 99.0108 102.103 98.4254C102.113 98.2865 102.116 98.1422 102.119 98.0007C105.328 97.0178 107.718 92.7813 106.774 89.5821Z" fill="#FABD92"/>
    <path d="M98.4425 81.0295C97.1562 80.7953 96.0142 82.0151 94.8014 82.6331C93.7925 83.1477 92.6613 83.2566 91.6171 83.6786C90.5729 84.1007 89.5314 85.0155 89.4716 86.2026C88.4465 85.6254 87.337 85.0318 86.1623 85.2197C84.9876 85.4076 83.8563 86.7662 84.286 87.9342C84.6694 88.977 86.0046 89.2656 86.4179 90.2948C87.0732 91.9229 85.08 94.3516 86.3499 95.457C86.6545 95.7238 87.0787 95.8001 87.3778 96.0723C87.7503 96.4127 87.8537 96.979 88.0087 97.4827C88.7075 99.7725 90.9373 101.324 93.1997 101.096C94.6219 100.486 95.7803 99.1653 96.3323 97.627C96.9958 95.7756 96.0169 95.0894 95.9054 93.3251C95.783 91.3975 96.4601 89.3854 97.7164 87.9315C98.5349 86.9867 99.6852 86.1862 100.876 86.1127C101.36 86.0828 101.194 86.4803 101.752 86.1236C101.991 85.9712 102.328 85.3749 102.404 85.0836C101.137 83.9972 100.134 81.3371 98.4425 81.0295Z" fill="#2F486A"/>
    <path d="M112.34 83.976C113.001 84.183 113.727 84.1802 114.353 84.4797C115.294 84.929 115.204 85.92 115.446 86.7886C115.715 87.7524 116.107 89.0457 116.71 89.808C117.145 90.358 117.768 90.682 118.307 91.1122C118.845 91.5424 119.332 92.1686 119.296 92.9119C119.261 93.6171 118.769 94.2324 118.676 94.9349C118.557 95.9804 118.723 96.5249 118.364 97.584C118.179 98.1313 117.975 98.7112 117.548 99.0761C116.985 99.5553 116.207 99.5199 115.527 99.3837C114.848 99.2476 114.146 99.0352 113.466 99.2394C111.99 99.6832 112.213 101.173 111.783 102.4C111.13 104.268 108.906 105.3 107.255 104.573C105.855 103.958 105.088 102.283 105.205 100.658C105.265 99.8439 105.613 99.0951 105.662 98.281C105.711 97.4942 105.303 96.3915 106.034 95.7898C106.214 95.6428 106.437 95.5692 106.6 95.4032C106.731 95.267 106.807 95.0819 106.856 94.8967C107.03 94.2515 106.907 93.5381 106.543 93.029C106.279 92.6614 105.893 92.3891 105.738 91.9508C105.561 91.4498 105.733 90.8753 105.784 90.3308C105.907 89.013 105.227 87.6925 104.145 87.148C103.432 86.7886 102.785 86.568 102.168 86.0371C102.075 85.9554 100.675 84.6349 100.629 84.9099C100.71 84.4334 101.001 84.0223 101.298 83.6466C101.784 83.0285 102.32 82.4295 102.989 82.0729C105.148 80.9184 105.159 83.7664 106.872 83.4478C107.285 83.3716 107.606 83.004 107.984 82.7917C108.697 82.3887 109.548 82.5684 110.252 82.9115C110.959 83.2491 111.598 83.7419 112.34 83.976Z" fill="#2F486A"/>
    <path d="M73.6403 142.096C72.1909 141.747 70.8231 141.96 69.5723 142.725C68.3214 143.49 67.5111 144.614 67.163 146.065C66.8149 147.517 67.0243 148.889 67.7912 150.138C68.5553 151.391 69.6783 152.202 71.1277 152.551C71.7014 152.69 72.2643 152.739 72.8109 152.701C73.643 152.643 74.4397 152.382 75.1957 151.922C76.4466 151.154 77.2569 150.032 77.605 148.581C77.953 147.133 77.7409 145.76 76.9768 144.508C76.21 143.256 75.0869 142.444 73.6403 142.096Z" fill="#F368A3"/>
    <path d="M76.977 144.508C76.2101 143.256 75.0871 142.444 73.6404 142.096C73.1727 141.984 72.7132 141.93 72.2645 141.933C73.189 142.368 73.9395 143.046 74.497 143.958C75.2611 145.213 75.4732 146.583 75.1251 148.031C74.7771 149.483 73.9667 150.607 72.7159 151.372C71.9599 151.835 71.1632 152.094 70.3311 152.151C70.2277 152.159 70.1271 152.162 70.0238 152.162C70.3692 152.325 70.7363 152.453 71.1278 152.548C71.7016 152.687 72.2645 152.736 72.811 152.698C73.6431 152.641 74.4399 152.38 75.1958 151.919C76.4467 151.152 77.257 150.03 77.6051 148.579C77.9532 147.133 77.7411 145.761 76.977 144.508Z" fill="#DB4786"/>
    <path d="M101.045 105.048C98.5648 101.331 94.6545 98.8047 89.42 97.5441C84.1854 96.2835 79.5327 96.7436 75.5844 98.9082C72.1527 100.792 69.7488 103.752 68.4354 107.705C68.2152 108.372 68.2832 109.107 68.6231 109.72C68.963 110.335 69.5503 110.782 70.2329 110.945L73.3491 111.697C74.5918 111.996 75.8617 111.313 76.2995 110.104C77.0745 107.964 78.2792 106.464 79.9814 105.522C82.0426 104.381 84.6123 104.168 87.6144 104.89C90.6083 105.611 92.7728 107 94.0454 109.018C95.3153 111.03 95.6008 113.537 94.8938 116.475C93.9203 120.526 92.1066 122.974 89.5015 123.755C86.7578 124.578 82.8094 124.349 77.7598 123.08L76.411 122.756C75.065 122.432 73.7054 123.265 73.3818 124.613L70.5537 136.375C70.396 137.029 70.5021 137.704 70.8529 138.276C71.2036 138.847 71.7557 139.25 72.4083 139.408L75.5708 140.171C75.8264 140.233 76.082 140.252 76.3294 140.236C77.3954 140.162 78.339 139.408 78.6 138.316L80.4301 130.698C80.4519 130.603 80.547 130.543 80.6422 130.562C86.5729 131.823 91.4132 131.605 95.0298 129.909C98.8776 128.106 101.496 124.409 102.818 118.917C104.131 113.453 103.533 108.786 101.045 105.048Z" fill="#F368A3"/>
    <path d="M101.045 105.048C98.5652 101.331 94.6549 98.8046 89.4204 97.5439C86.179 96.7625 83.1606 96.6427 80.3951 97.1791C81.8717 97.2445 83.4026 97.4677 84.988 97.8516C90.2226 99.1122 94.1356 101.636 96.6128 105.355C99.1037 109.091 99.6992 113.76 98.3858 119.227C97.0669 124.719 94.4456 128.417 90.5978 130.219C89.4856 130.739 88.2592 131.12 86.9214 131.362C90.073 131.447 92.7868 130.965 95.0302 129.914C98.878 128.112 101.497 124.414 102.818 118.923C104.132 113.453 103.533 108.786 101.045 105.048Z" fill="#DB4786"/>
    <path d="M84.1548 128.886L80.8373 128.101L81.1119 126.667L83.5022 126.702L83.3172 125.964L86.0746 126.982L85.9903 128.51L84.1548 128.886Z" fill="#FABD92"/>
    <path d="M106.115 115.19L100.557 125.988L85.2559 126.323L85.245 129.367L103.399 132.98L109.8 122.784L106.115 115.19Z" fill="#6AA9FF"/>
    <path d="M35.3623 164.97L39.6044 167.306L39.2373 169.299L31.694 168.265L32.0992 165.392L35.3623 164.97Z" fill="#2F486A"/>
    <path d="M16.1727 167.156L13.2196 167.121L12.499 169.623L12.5751 169.645L12.5561 169.647L17.4725 172.476L19.7947 172.705L20.0558 170.048L19.4222 169.596L16.1727 167.156Z" fill="#2F486A"/>
    <path d="M25.2741 120.019C25.7473 119.97 27.0416 136.976 27.0416 136.976L17.856 167.878L12.5589 166.836L15.7866 135.979C15.7866 135.979 4.57238 123.03 7.80286 113.359C12.6785 115.728 25.2741 120.019 25.2741 120.019Z" fill="#8CABEF"/>
    <path d="M38.5114 120.163L39.5828 135.326L36.627 165.504L31.1748 165.227C31.1748 165.227 29.8614 136.644 29.3203 136.061C28.7792 135.479 24.1374 120.479 24.1374 120.479L38.5114 120.163Z" fill="#8CABEF"/>
    <path d="M31.3407 127.081C14.0217 126.762 12.7518 118.014 8.93941 117.059C5.12701 116.103 7.11479 111.559 7.11479 111.559C7.11479 111.559 7.83539 109.531 8.14539 108.469C10.3697 100.834 17.0482 91.0353 17.0482 91.0326C20.3413 86.532 23.6479 82.5569 26.5004 80.1582C34.9899 73.0193 44.0831 72.6871 44.0831 72.6871C57.1791 76.7875 52.5591 82.9517 52.7086 84.5744C48.4013 88.5277 45.2796 94.4523 42.9791 100.81C41.8941 104.178 40.6161 109.996 41.508 117.059C41.7935 119.324 42.1253 121.287 42.4543 122.997C42.5196 125.232 40.3768 127.225 31.3407 127.081Z" fill="#267FF9"/>
    <path d="M44.1355 74.0679C44.1355 74.0679 47.0506 72.4697 48.8562 75.2496C51.0479 78.6257 38.659 93.851 38.9526 126.412C35.7058 127.071 27.3387 128.642 18.7104 124.566C20.671 114.892 29.1307 85.7156 44.1355 74.0679Z" fill="white"/>
    <path d="M50.5437 63.7868C52.0121 64.9331 53.2847 67.3699 52.7789 69.2894C52.5342 70.2124 51.8707 70.8331 51.6477 71.8324C51.2044 73.8009 47.7863 75.2494 49.2221 77.5337C49.9617 78.7072 51.3921 79.2027 52.7163 79.6193C52.8768 79.6683 53.0454 79.72 53.2112 79.6873C53.4832 79.6329 53.6654 79.3633 53.717 79.0911C53.7687 78.8188 53.717 78.5384 53.6871 78.2634C53.3853 75.3828 55.335 72.4967 56.0556 69.774C56.7762 67.0568 56.7381 63.9529 54.8564 61.6958C53.252 61.8455 52.6021 61.5352 51.5715 62.7767L50.5437 63.7868Z" fill="#2F486A"/>
    <path d="M47.1061 75.3116C49.0178 75.4613 50.8832 74.4131 52.0933 72.9265C53.3033 71.4399 53.9424 69.564 54.3394 67.6881C55.6582 61.4422 48.0198 59.422 43.9926 63.2419C40.482 66.5718 41.5507 74.876 47.1061 75.3116Z" fill="#FABD92"/>
    <path d="M37.5946 74.1386C38.6089 74.0624 39.6232 73.9589 40.5314 73.3C42.0025 72.2382 42.87 69.8422 43.7728 68.3257C44.7245 66.7274 45.8122 65.0121 47.5689 64.4023C48.7164 64.0048 49.7334 64.2634 50.8102 64.6963C51.5472 64.9931 51.4601 65.2817 52.2433 65.1483C52.8442 65.0448 53.6274 64.3151 53.9591 63.8359C54.5166 63.0246 54.5519 61.9382 54.2555 60.9989C53.7987 59.5532 52.953 58.5757 51.6043 57.974C46.8755 55.8612 42.1032 57.1899 38.7993 61.293C37.2112 63.2669 36.6429 65.9651 35.0467 67.8356C34.0623 68.99 32.8359 69.5209 31.8951 70.7951C29.4532 74.1032 25.4422 77.9613 24.001 81.8356C23.9466 81.9799 23.8977 82.1433 23.9657 82.2794C24.1016 82.5599 24.5204 82.4646 24.7978 82.323C26.4239 81.5116 28.05 80.6976 29.6761 79.8862C30.3152 79.5676 30.9623 79.2409 31.4872 78.759C32.7978 77.5556 33.252 75.4809 34.84 74.6859C35.7102 74.253 36.6538 74.2094 37.5946 74.1386Z" fill="#2F486A"/>
    <path d="M30.9522 82.3418L17.8834 79.2733L14.3892 61.8835L18.7291 62.2619L22.0765 73.6183L39.0175 74.1029L39.9856 75.3962L30.9522 82.3418Z" fill="#267FF9"/>
    <path d="M19.1481 76.6331C17.3915 77.1694 16.0699 78.2503 15.2215 79.8458C14.3731 81.4413 14.2127 83.143 14.7484 84.9019C15.2841 86.6635 16.3636 87.984 17.9571 88.8334C19.5506 89.6829 21.2501 89.8436 23.0068 89.3072C23.7029 89.0948 24.331 88.7953 24.8885 88.4142C25.7369 87.8342 26.4194 87.0582 26.9334 86.0944C27.7818 84.4989 27.9422 82.7972 27.4065 81.0384C26.8708 79.2822 25.794 77.959 24.1978 77.1068C22.6016 76.2573 20.9021 76.0994 19.1481 76.6331Z" fill="#F368A3"/>
    <path d="M24.1977 77.107C22.6015 76.2575 20.9047 76.0968 19.1507 76.6332C18.5851 76.8047 18.063 77.0362 17.5872 77.3221C18.8407 77.205 20.059 77.4582 21.2228 78.0762C22.819 78.9284 23.8958 80.2517 24.4315 82.0078C24.9672 83.7667 24.8068 85.4656 23.9584 87.0638C23.4445 88.0277 22.7592 88.8009 21.9135 89.3836C21.8102 89.4544 21.7014 89.5224 21.5926 89.5878C22.0603 89.5442 22.5308 89.4516 23.0066 89.3073C23.7028 89.095 24.3309 88.7955 24.8884 88.4143C25.7368 87.8344 26.4193 87.0584 26.9333 86.0946C27.7817 84.4991 27.9421 82.7974 27.4064 81.0385C26.8707 79.2824 25.7912 77.9619 24.1977 77.107Z" fill="#DB4786"/>
    <path d="M25.1355 20.1614C20.1837 17.7655 14.457 17.5313 8.11021 19.4671C1.76617 21.403 -2.88921 24.8009 -5.72812 29.5683C-8.19449 33.715 -8.90421 38.3599 -7.83011 43.3805C-7.65063 44.2273 -7.11766 44.9624 -6.3753 45.4035C-5.63022 45.8418 -4.73015 45.9507 -3.90349 45.6975L-0.126437 44.5458C1.38003 44.0857 2.30186 42.5664 2.0109 41.0118C1.49968 38.2537 1.84231 35.9095 3.06326 33.8429C4.53982 31.3408 7.13399 29.5111 10.7724 28.4003C14.3999 27.2949 17.5651 27.4147 20.1756 28.7597C22.7779 30.102 24.646 32.5878 25.7283 36.1491C27.2212 41.0581 26.8242 44.7936 24.5454 47.2522C22.1443 49.8388 17.8125 52.0686 11.6588 53.8792L10.0246 54.3775C8.39301 54.8757 7.46846 56.6101 7.96609 58.2437L12.3033 72.4997C12.5453 73.292 13.0783 73.9427 13.8071 74.3294C14.5358 74.7187 15.3734 74.8004 16.1647 74.5581L19.9961 73.39C20.3061 73.2947 20.5889 73.1586 20.8418 72.9843C21.9268 72.241 22.457 70.8498 22.0546 69.5238L19.2456 60.2912C19.2102 60.1768 19.2755 60.0543 19.387 60.0162C26.4707 57.6474 31.4741 54.3856 34.2559 50.3234C37.2172 46.0025 37.6931 40.44 35.6672 33.783C33.655 27.1533 30.109 22.571 25.1355 20.1614Z" fill="#F368A3"/>
    <path d="M25.1356 20.1613C20.1839 17.7653 14.4571 17.5312 8.11035 19.467C4.18374 20.665 0.901588 22.4239 -1.70074 24.7218C-0.0936614 23.8696 1.67386 23.1481 3.59366 22.5627C9.93769 20.6269 15.6672 20.861 20.6189 23.257C25.5925 25.6666 29.1384 30.2489 31.1534 36.8786C33.1765 43.5329 32.7033 49.0981 29.7421 53.419C28.8882 54.666 27.8223 55.8394 26.5524 56.9312C29.9515 55.0499 32.532 52.839 34.2588 50.3206C37.22 45.9996 37.6959 40.4372 35.6701 33.7802C33.6551 27.1532 30.1092 22.5709 25.1356 20.1613Z" fill="#DB4786"/>
    <path d="M52.3826 41.9842C51.0475 41.946 49.8863 42.3844 48.9319 43.2856C47.9774 44.1868 47.4716 45.3222 47.4336 46.659C47.3955 47.9959 47.8333 49.1585 48.7334 50.1141C49.6334 51.0698 50.7674 51.5762 52.1025 51.6143C52.6328 51.6307 53.1331 51.5708 53.6063 51.4373C54.3242 51.2331 54.9768 50.8574 55.5533 50.3129C56.5077 49.4089 57.0135 48.2763 57.0516 46.9395C57.0897 45.6053 56.6546 44.4428 55.7518 43.4844C54.849 42.5287 53.7151 42.0223 52.3826 41.9842Z" fill="#F368A3"/>
    <path d="M55.7522 43.4842C54.8494 42.5286 53.7155 42.0221 52.383 41.984C51.9534 41.9704 51.5401 42.0085 51.1458 42.0956C52.0377 42.308 52.8181 42.7627 53.4762 43.4597C54.379 44.4181 54.814 45.5807 54.776 46.9148C54.7379 48.2517 54.2321 49.387 53.2777 50.2882C52.7012 50.8328 52.0486 51.2085 51.3307 51.4127C51.2409 51.4372 51.1512 51.459 51.0615 51.4781C51.3932 51.557 51.7386 51.6033 52.1002 51.6142C52.6305 51.6305 53.1308 51.5706 53.604 51.4372C54.3219 51.233 54.9745 50.8573 55.551 50.3127C56.5054 49.4088 57.0112 48.2762 57.0493 46.9393C57.0928 45.6052 56.655 44.4426 55.7522 43.4842Z" fill="#DB4786"/>
    <path d="M69.6035 4.44599C66.7456 1.64434 62.8516 0.152306 58.0276 0.0107261C53.2063 -0.130854 49.209 1.12975 46.1471 3.75715C43.485 6.04149 41.9214 9.08001 41.4945 12.791C41.4238 13.4173 41.6169 14.0489 42.0302 14.5227C42.4408 14.9991 43.039 15.2823 43.6672 15.3014L46.5387 15.3858C47.6835 15.4184 48.6706 14.5853 48.8311 13.4472C49.1166 11.427 49.897 9.89137 51.2186 8.75056C52.8175 7.37016 55.0282 6.71127 57.7965 6.79023C60.5538 6.87191 62.7074 7.68871 64.1949 9.22431C65.6769 10.7545 66.3893 12.9027 66.3105 15.609C66.2017 19.3391 65.0623 21.8222 62.9195 22.9875C60.6653 24.2127 57.1629 24.7436 52.4993 24.5585L51.2566 24.5231C50.0167 24.4877 48.9779 25.4679 48.9425 26.7094L48.6271 37.5457C48.6108 38.1475 48.8283 38.7192 49.2389 39.1576C49.6523 39.5959 50.2097 39.8464 50.8107 39.8628L53.723 39.9472C53.9569 39.9553 54.1853 39.9254 54.4001 39.8628C55.3192 39.6014 56.0099 38.7655 56.0371 37.7608L56.241 30.7445C56.2438 30.6573 56.3172 30.5865 56.4015 30.5865C61.8346 30.6002 66.0385 29.5138 68.8992 27.3629C71.9421 25.0731 73.56 21.3485 73.7069 16.2897C73.8537 11.2473 72.4723 7.26397 69.6035 4.44599Z" fill="#F368A3"/>
    <path d="M69.6037 4.44583C66.7457 1.64418 62.8518 0.152148 58.0278 0.0105679C55.042 -0.0765582 52.3744 0.375408 50.0468 1.35285C51.352 1.14048 52.7361 1.05336 54.1963 1.0942C59.0176 1.23578 62.9143 2.72781 65.7695 5.52946C68.6411 8.34745 70.0197 12.3307 69.8729 17.3677C69.7261 22.4265 68.1081 26.1511 65.0652 28.4409C64.1869 29.1025 63.1808 29.6634 62.0523 30.1208C64.8314 29.6144 67.1237 28.6914 68.8967 27.3545C71.9395 25.0648 73.5575 21.3401 73.7043 16.2814C73.8539 11.2471 72.4725 7.26381 69.6037 4.44583Z" fill="#DB4786"/>
    <path d="M54.4414 96.9654L52.9349 80.3896L49.0627 80.2208L46.4169 92.9957L43.1973 98.3757L48.1191 103.127C48.1191 103.127 52.3041 100.532 52.8479 100.35L54.4414 96.9654Z" fill="#267FF9"/>
    <path d="M52.6194 80.3774L52.595 76.0238L49.9546 74.6707L47.4365 76.2362L48.9838 78.3109L50.4114 80.2821L52.6194 80.3774Z" fill="#FABD92"/>
    <path d="M171.246 107.205L172.475 115.667L170.012 163.395L165.875 162.528L159.017 108.268L171.246 107.205Z" fill="#2F486A"/>
    <path d="M150.936 105.616L150.136 137.257L158.164 164.57L162.842 162.827L158.901 138.471L162.519 105.345L150.936 105.616Z" fill="#2F486A"/>
    <path d="M162.858 160.271L157.256 162.841L159.136 166.763L156.199 168.617C156.199 168.617 155.921 170.25 156.909 170.94C157.894 171.629 164.285 166.254 164.285 166.254L162.858 160.271Z" fill="#263B57"/>
    <path d="M171.246 161.2L165.17 162.226L165.97 166.501L162.653 167.528C162.653 167.528 161.962 169.031 162.738 169.954C163.512 170.877 171.076 167.347 171.076 167.347L171.246 161.2Z" fill="#263B57"/>
    <path d="M159.438 54.0162C159.873 55.4244 160.492 56.7742 161.279 58.018C161.298 55.4323 161.674 52.8493 162.392 50.367C162.447 50.1788 162.5 49.9639 162.402 49.7916C162.309 49.6324 162.116 49.5688 161.936 49.5264C158.742 48.7546 158.683 51.5631 159.438 54.0162Z" fill="#2F486A"/>
    <path d="M161.191 58.0696C161.525 59.133 162.076 60.337 163.178 60.9841C164.475 61.7479 165.863 61.358 166.83 60.772C170.03 58.8334 175.573 48.1511 167.235 45.5257C159.665 43.1468 159.808 53.6567 161.191 58.0696Z" fill="#FABD92"/>
    <path d="M167.778 58.1178C168.276 58.855 169.41 58.6879 170.212 58.306C173.515 56.7414 175.531 52.835 174.893 49.2336C174.36 46.2209 170.639 43.8792 169.786 47.5761C169.484 48.8862 170.242 50.732 170.022 52.1879C169.709 54.2724 168.689 56.2455 167.778 58.1178Z" fill="#2F486A"/>
    <path d="M159.637 41.6793C155.841 43.7823 154.143 48.4127 150.671 51.0169C153.791 52.449 157.499 52.5418 160.685 51.2662C163.811 50.0145 171.222 49.256 170.252 44.92C169.267 40.5045 162.963 39.8361 159.637 41.6793Z" fill="#2F486A"/>
    <path d="M174.363 68.9922C176.538 72.7713 176.527 77.0489 176.228 81.1436C175.547 90.4096 176.429 101.153 173.24 110.01C167.217 110.005 155.672 107.239 149.673 106.621C148.505 98.5672 149.185 93.8572 149.845 84.7344C150.171 80.2366 150.867 74.2033 152.456 69.9177C153.757 66.4091 157.229 61.8795 162.466 62.0254C167.374 62.158 172.387 65.5552 174.363 68.9922Z" fill="#267FF9"/>
    <path d="M164.555 63.8955C164.007 64.1288 163.334 64.0307 162.683 63.3996C162.124 62.8559 162.296 62.6809 162.415 61.88C162.59 60.6998 162.903 59.5277 163.146 58.3608L166.388 59.037C166.386 59.037 165.737 62.1982 165.686 62.413C165.53 63.0999 165.104 63.6621 164.555 63.8955Z" fill="#FABD92"/>
    <path d="M132.133 72.2798L129.601 69.7817L125.609 69.8771L125.154 71.9059L131.187 74.5155L132.133 72.2798Z" fill="#FABD92"/>
    <path d="M161.879 64.7347L158.998 62.1278L143.468 74.5152L132.304 70.5903L128.716 75.1729L143.654 83.9457L159.448 73.8125L161.879 64.7347Z" fill="#267FF9"/>
    <path d="M120.015 83.7593C117.846 83.4517 115.875 83.9529 114.151 85.2497C112.429 86.5465 111.399 88.3048 111.092 90.4741C110.784 92.6488 111.285 94.6218 112.58 96.3456C113.875 98.0694 115.631 99.101 117.798 99.4087C118.659 99.5307 119.488 99.5254 120.283 99.3928C121.49 99.1912 122.621 98.7006 123.662 97.9182C125.384 96.6214 126.414 94.8632 126.721 92.6938C127.029 90.5245 126.528 88.5488 125.233 86.8223C123.938 85.0959 122.182 84.0669 120.015 83.7593Z" fill="#F368A3"/>
    <path d="M125.233 86.8206C123.938 85.0968 122.182 84.0652 120.015 83.7602C119.316 83.6621 118.635 83.6462 117.978 83.7151C119.392 84.2243 120.582 85.1101 121.527 86.3671C122.822 88.0935 123.323 90.0693 123.016 92.2386C122.709 94.4106 121.678 96.1688 119.957 97.463C118.916 98.2453 117.787 98.736 116.577 98.9375C116.429 98.9614 116.278 98.9799 116.127 98.9959C116.654 99.1841 117.21 99.322 117.795 99.4069C118.656 99.5289 119.485 99.5236 120.28 99.391C121.488 99.1894 122.619 98.6988 123.659 97.9165C125.381 96.6197 126.411 94.8614 126.719 92.6921C127.029 90.5228 126.528 88.5497 125.233 86.8206Z" fill="#DB4786"/>
    <path d="M154.927 25.7291C150.782 20.6372 144.706 17.4946 136.871 16.3808C129.039 15.2696 122.296 16.593 116.824 20.3163C112.07 23.5518 108.963 28.2193 107.593 34.1889C107.363 35.194 107.564 36.2601 108.15 37.1114C108.732 37.9627 109.654 38.5329 110.674 38.6787L115.338 39.3417C117.2 39.6043 118.959 38.4268 119.43 36.5996C120.264 33.3588 121.817 30.9986 124.176 29.3808C127.032 27.421 130.761 26.7527 135.253 27.3892C139.732 28.0257 143.093 29.7521 145.239 32.5234C147.376 35.2868 148.144 38.9174 147.522 43.3144C146.664 49.3742 144.351 53.2116 140.651 54.7179C136.752 56.3038 130.946 56.5239 123.382 55.3756L121.364 55.0892C119.348 54.8028 117.478 56.211 117.192 58.2292L114.7 75.8304C114.562 76.8064 114.811 77.7796 115.404 78.5699C115.997 79.3602 116.861 79.8694 117.836 80.0073L122.566 80.6783C122.948 80.7313 123.324 80.726 123.684 80.665C125.231 80.4077 126.505 79.1719 126.738 77.5383L128.356 66.1401C128.377 65.9995 128.507 65.8961 128.647 65.912C137.497 66.9277 144.547 65.9279 149.604 62.9418C154.98 59.7673 158.296 53.9913 159.459 45.7754C160.617 37.5914 159.091 30.8474 154.927 25.7291Z" fill="#F368A3"/>
    <path d="M154.927 25.7288C150.781 20.637 144.705 17.4944 136.871 16.3806C132.021 15.6937 127.59 15.9403 123.617 17.1098C125.784 17.0011 128.056 17.1125 130.429 17.4493C138.264 18.5605 144.337 21.7057 148.485 26.7976C152.649 31.9159 154.174 38.6599 153.014 46.8439C151.852 55.0598 148.535 60.8358 143.159 64.0103C141.607 64.9279 139.864 65.6572 137.941 66.1982C142.563 65.8799 146.464 64.7953 149.6 62.9442C154.977 59.7697 158.293 53.9937 159.456 45.7778C160.616 37.5912 159.09 30.8471 154.927 25.7288Z" fill="#DB4786"/>
    <path d="M181.61 72.7226L177.15 57.1395L173.415 57.6858L173.105 77.04L176.686 79.7742C176.686 79.7742 180.219 76.5282 180.704 76.2524L181.61 72.7226Z" fill="#267FF9"/>
    <path d="M176.844 57.1819L176.026 53.021L173.256 52.2095L171.131 54.1693L172.988 55.8692L174.715 57.4949L176.844 57.1819Z" fill="#FABD92"/>
</svg>