<svg width="360" height="157" viewBox="0 0 360 157" fill="none" xmlns="http://www.w3.org/2000/svg">
    <g clip-path="url(#clip0)">
        <path opacity="0.25" d="M147.881 84.6521C92.1672 47.4336 17.8338 97.3537 46.2701 168.947L74.7063 177.153C132.759 196.834 266.509 241.22 303.194 193.985C349.051 134.942 292.219 68.7959 238.619 92.0324C208.373 103.841 185.445 109.746 147.881 84.6521Z" fill="#267FF9"/>
        <path d="M215.022 131.98L217.188 131.364L220.668 136.673H217.188L215.091 135.597L215.022 131.98Z" fill="#2F486A"/>
        <path d="M176.418 121.251C176.418 121.251 173.395 123.479 173.434 125.448C173.434 125.448 173.113 129.597 173.929 131.231L178.477 135.4L186.876 134.857L189.586 122.874L176.418 121.251Z" fill="#1C70E3"/>
        <path d="M185.637 123.913C185.637 123.913 182.011 123.056 180.768 125.545L178.297 130.139L182.651 135.977L215.64 135.871L215.574 131.904L204.9 128.872C205.837 128.236 206.623 127.233 207.094 126.212C207.939 124.38 207.279 123.027 206.599 121.306C206.39 120.779 205.395 117.853 204.541 118.083C204.537 118.085 185.637 123.913 185.637 123.913Z" fill="#267FF9"/>
        <path d="M166.197 78.5272L164.675 75.7941L165.806 75.0875L167.26 76.7265L167.641 76.1418L168.662 78.6402L167.584 79.535L166.197 78.5272Z" fill="#FABD92"/>
        <path d="M188.315 84.8476L177.853 87.676L168.598 77.678L166.548 79.5606L175.072 96.097L187.851 93.4901L188.315 84.8476Z" fill="#6AA9FF"/>
        <path d="M178.003 114.571C180.281 108.189 180.718 101.427 181.539 94.7295C181.781 92.7538 182.036 90.7339 182.914 88.9509C183.922 86.9021 185.515 85.8567 187.346 85.3162C189.678 84.6296 192.397 84.7625 194.802 84.6938C197.079 84.6961 198.815 93.374 201 97.6244C202.34 100.229 203.733 102.541 204.602 105.363C205.436 108.072 206.232 110.827 206.679 113.631C207.352 117.866 209.326 120.872 207.304 122.239C207.121 122.294 206.945 122.347 206.778 122.4C203.5 123.463 200.116 124.219 196.688 124.56C193.645 124.863 190.567 124.834 187.533 124.433C183.381 123.884 179.365 123.16 175.766 120.852C176.509 118.757 177.257 116.664 178.003 114.571Z" fill="#6AA9FF"/>
        <path d="M196.122 78.3199C194.954 74.3375 189.286 72.7782 187.81 77.3143C187.365 78.6765 187.079 80.1294 187.304 81.5448C187.53 82.9601 188.34 84.34 189.625 84.9579C189.632 84.9623 189.641 84.9646 189.647 84.969C189.583 85.3322 189.522 85.6955 189.458 86.0587C189.445 86.1362 189.431 86.2226 189.473 86.2913C189.522 86.3688 189.618 86.391 189.707 86.4065C190.138 86.4862 190.569 86.5659 191 86.6435C191.214 86.6833 191.436 86.721 191.645 86.6612C192.103 86.5305 192.307 85.9901 192.342 85.5139C192.351 85.4009 192.353 85.2835 192.356 85.1683C194.952 84.3688 196.886 80.9224 196.122 78.3199Z" fill="#FABD92"/>
        <path d="M189.381 71.3623C188.341 71.1719 187.417 72.1641 186.435 72.6669C185.619 73.0855 184.704 73.1741 183.859 73.5174C183.014 73.8607 182.171 74.605 182.123 75.5706C181.293 75.1011 180.396 74.6182 179.445 74.7711C178.495 74.9239 177.579 76.0291 177.927 76.9793C178.237 77.8276 179.317 78.0624 179.652 78.8996C180.182 80.2241 178.569 82.1998 179.597 83.0991C179.843 83.3161 180.187 83.3782 180.429 83.5996C180.73 83.8765 180.814 84.3372 180.939 84.747C181.505 86.6097 183.309 87.8722 185.139 87.6861C186.29 87.19 187.227 86.1158 187.674 84.8644C188.211 83.3582 187.419 82.8001 187.329 81.3648C187.23 79.7967 187.777 78.1599 188.794 76.9771C189.456 76.2085 190.387 75.5574 191.351 75.4976C191.742 75.4732 191.608 75.7966 192.059 75.5064C192.253 75.3824 192.526 74.8973 192.587 74.6603C191.562 73.7766 190.75 71.6126 189.381 71.3623Z" fill="#2F486A"/>
        <path d="M200.627 73.7596C201.162 73.9279 201.749 73.9257 202.255 74.1694C203.016 74.5348 202.944 75.341 203.14 76.0476C203.357 76.8317 203.674 77.8837 204.163 78.5039C204.515 78.9513 205.019 79.2149 205.454 79.5648C205.89 79.9148 206.284 80.4242 206.255 81.0289C206.227 81.6025 205.828 82.1031 205.753 82.6746C205.657 83.5251 205.791 83.9681 205.5 84.8297C205.351 85.2748 205.186 85.7466 204.84 86.0434C204.385 86.4332 203.756 86.4044 203.206 86.2937C202.656 86.1829 202.088 86.0102 201.538 86.1763C200.343 86.5373 200.523 87.7489 200.176 88.7478C199.648 90.2672 197.848 91.1067 196.512 90.5153C195.379 90.0147 194.759 88.6526 194.853 87.3303C194.902 86.668 195.183 86.0589 195.223 85.3967C195.263 84.7566 194.933 83.8595 195.524 83.37C195.67 83.2504 195.85 83.1906 195.982 83.0555C196.088 82.9448 196.149 82.7942 196.189 82.6436C196.33 82.1186 196.231 81.5383 195.936 81.1241C195.723 80.8251 195.41 80.6036 195.285 80.247C195.142 79.8395 195.28 79.3721 195.322 78.9292C195.421 77.8572 194.871 76.7829 193.995 76.34C193.419 76.0476 192.895 75.8682 192.396 75.4363C192.321 75.3698 191.188 74.2956 191.15 74.5193C191.216 74.1317 191.452 73.7973 191.692 73.4916C192.086 72.9888 192.519 72.5015 193.06 72.2114C194.807 71.2723 194.816 73.5891 196.202 73.3299C196.537 73.2679 196.796 72.9689 197.102 72.7961C197.679 72.4683 198.367 72.6145 198.937 72.8936C199.509 73.1682 200.026 73.5691 200.627 73.7596Z" fill="#2F486A"/>
        <path d="M169.313 121.039C168.141 120.755 167.034 120.928 166.022 121.55C165.01 122.173 164.354 123.087 164.072 124.268C163.791 125.448 163.96 126.565 164.581 127.581C165.199 128.6 166.108 129.26 167.28 129.544C167.745 129.657 168.2 129.697 168.642 129.666C169.316 129.619 169.96 129.406 170.572 129.032C171.584 128.408 172.24 127.495 172.521 126.314C172.803 125.136 172.631 124.02 172.013 123.001C171.393 121.982 170.484 121.322 169.313 121.039Z" fill="#F368A3"/>
        <path d="M172.013 123.002C171.392 121.983 170.484 121.323 169.313 121.039C168.935 120.948 168.563 120.904 168.2 120.906C168.948 121.261 169.555 121.812 170.006 122.554C170.624 123.575 170.796 124.689 170.514 125.868C170.233 127.048 169.577 127.963 168.565 128.585C167.953 128.962 167.309 129.172 166.635 129.219C166.552 129.225 166.47 129.228 166.387 129.228C166.666 129.361 166.963 129.465 167.28 129.542C167.744 129.655 168.2 129.695 168.642 129.664C169.315 129.617 169.96 129.405 170.572 129.031C171.584 128.406 172.239 127.493 172.521 126.313C172.803 125.137 172.631 124.02 172.013 123.002Z" fill="#DB4786"/>
        <path d="M191.487 90.9007C189.481 87.8773 186.317 85.8219 182.081 84.7964C177.846 83.7709 174.081 84.1452 170.886 85.9061C168.11 87.4388 166.165 89.8464 165.102 93.0624C164.924 93.605 164.979 94.2031 165.254 94.7014C165.529 95.202 166.004 95.5652 166.556 95.6981L169.078 96.3094C170.083 96.5531 171.111 95.9971 171.465 95.0137C172.092 93.2728 173.067 92.0524 174.444 91.286C176.112 90.358 178.191 90.1852 180.62 90.7722C183.043 91.3591 184.794 92.4887 185.824 94.13C186.851 95.7668 187.082 97.8067 186.51 100.197C185.723 103.492 184.255 105.484 182.147 106.119C179.927 106.788 176.732 106.602 172.647 105.57L171.555 105.306C170.466 105.043 169.366 105.721 169.104 106.817L166.816 116.385C166.688 116.917 166.774 117.466 167.058 117.931C167.342 118.396 167.788 118.724 168.316 118.853L170.875 119.473C171.082 119.524 171.289 119.539 171.489 119.526C172.352 119.466 173.115 118.853 173.326 117.964L174.807 111.767C174.825 111.69 174.902 111.641 174.979 111.656C179.778 112.682 183.694 112.505 186.62 111.125C189.734 109.659 191.853 106.651 192.922 102.183C193.985 97.738 193.5 93.9417 191.487 90.9007Z" fill="#F368A3"/>
        <path d="M191.488 90.9005C189.481 87.8772 186.317 85.8218 182.082 84.7963C179.459 84.1606 177.017 84.0632 174.779 84.4995C175.974 84.5527 177.213 84.7343 178.496 85.0466C182.731 86.0721 185.897 88.1253 187.902 91.1508C189.917 94.1897 190.399 97.9882 189.336 102.436C188.269 106.903 186.148 109.911 183.035 111.377C182.135 111.8 181.142 112.11 180.06 112.307C182.61 112.376 184.806 111.984 186.621 111.129C189.734 109.663 191.853 106.655 192.923 102.188C193.985 97.7379 193.501 93.9416 191.488 90.9005Z" fill="#DB4786"/>
        <path d="M177.821 110.293L175.137 109.655L175.359 108.488L177.293 108.516L177.143 107.916L179.374 108.745L179.306 109.987L177.821 110.293Z" fill="#FABD92"/>
        <path d="M195.59 99.1516L191.093 107.936L178.712 108.208L178.703 110.685L193.392 113.624L198.571 105.329L195.59 99.1516Z" fill="#6AA9FF"/>
        <path d="M138.341 139.647L141.774 141.548L141.477 143.169L135.373 142.327L135.701 139.991L138.341 139.647Z" fill="#2F486A"/>
        <path d="M122.814 141.425L120.425 141.397L119.842 143.432L119.903 143.45L119.888 143.452L123.866 145.753L125.745 145.939L125.956 143.778L125.444 143.41L122.814 141.425Z" fill="#2F486A"/>
        <path d="M130.179 103.079C130.562 103.039 131.609 116.874 131.609 116.874L124.177 142.013L119.89 141.164L122.502 116.063C122.502 116.063 113.428 105.529 116.042 97.6616C119.987 99.5886 130.179 103.079 130.179 103.079Z" fill="#8CABEF"/>
        <path d="M140.889 103.196L141.756 115.531L139.365 140.081L134.953 139.855C134.953 139.855 133.89 116.603 133.452 116.129C133.015 115.655 129.259 103.453 129.259 103.453L140.889 103.196Z" fill="#8CABEF"/>
        <path d="M135.088 108.824C121.074 108.565 120.047 101.449 116.962 100.671C113.877 99.8938 115.486 96.1971 115.486 96.1971C115.486 96.1971 116.069 94.547 116.319 93.6832C118.119 87.4726 123.523 79.5012 123.523 79.499C126.188 75.8378 128.863 72.6041 131.171 70.6527C138.04 64.8453 145.398 64.5751 145.398 64.5751C155.994 67.9107 152.256 72.9252 152.377 74.2453C148.892 77.4613 146.366 82.2809 144.505 87.4527C143.627 90.1925 142.593 94.9258 143.314 100.671C143.545 102.514 143.814 104.111 144.08 105.502C144.133 107.32 142.399 108.942 135.088 108.824Z" fill="#267FF9"/>
        <path d="M145.44 65.6983C145.44 65.6983 147.799 64.3982 149.26 66.6596C151.034 69.4061 141.009 81.7918 141.247 108.28C138.62 108.816 131.85 110.094 124.868 106.778C126.455 98.9085 133.3 75.1737 145.44 65.6983Z" fill="white"/>
        <path d="M150.626 57.3347C151.814 58.2672 152.844 60.2495 152.434 61.811C152.236 62.5619 151.7 63.0668 151.519 63.8797C151.161 65.4811 148.395 66.6594 149.557 68.5177C150.155 69.4723 151.312 69.8754 152.384 70.2143C152.514 70.2542 152.65 70.2963 152.784 70.2697C153.004 70.2254 153.152 70.0061 153.194 69.7846C153.235 69.5631 153.194 69.335 153.169 69.1113C152.925 66.7679 154.503 64.4201 155.086 62.2053C155.669 59.9948 155.638 57.4698 154.115 55.6337C152.817 55.7555 152.291 55.503 151.458 56.513L150.626 57.3347Z" fill="#2F486A"/>
        <path d="M147.844 66.71C149.391 66.8318 150.9 65.9791 151.879 64.7698C152.859 63.5605 153.376 62.0344 153.697 60.5083C154.764 55.4274 148.584 53.7839 145.325 56.8914C142.484 59.6002 143.349 66.3556 147.844 66.71Z" fill="#FABD92"/>
        <path d="M140.148 65.7559C140.969 65.6938 141.79 65.6097 142.525 65.0737C143.715 64.2099 144.417 62.2608 145.147 61.0271C145.917 59.7269 146.797 58.3315 148.219 57.8354C149.147 57.512 149.97 57.7224 150.841 58.0746C151.438 58.316 151.367 58.5508 152.001 58.4423C152.487 58.3581 153.121 57.7645 153.389 57.3747C153.84 56.7147 153.869 55.8309 153.629 55.0668C153.26 53.8907 152.575 53.0955 151.484 52.606C147.658 50.8873 143.796 51.9682 141.123 55.306C139.838 56.9118 139.378 59.1068 138.087 60.6284C137.29 61.5675 136.298 61.9994 135.537 63.036C133.561 65.7271 130.315 68.8656 129.149 72.0174C129.105 72.1348 129.066 72.2677 129.121 72.3784C129.231 72.6065 129.569 72.529 129.794 72.4138C131.11 71.7538 132.425 71.0915 133.741 70.4315C134.258 70.1724 134.782 69.9066 135.206 69.5145C136.267 68.5356 136.634 66.8478 137.919 66.2011C138.623 65.8489 139.387 65.8135 140.148 65.7559Z" fill="#2F486A"/>
        <path d="M134.773 72.4292L124.198 69.933L121.371 55.7865L124.883 56.0944L127.591 65.3327L141.299 65.7269L142.082 66.779L134.773 72.4292Z" fill="#267FF9"/>
        <path d="M125.222 67.7857C123.8 68.222 122.731 69.1013 122.045 70.3992C121.358 71.6972 121.228 73.0815 121.662 74.5123C122.095 75.9453 122.969 77.0196 124.258 77.7106C125.547 78.4016 126.922 78.5323 128.344 78.096C128.907 77.9232 129.415 77.6796 129.866 77.3695C130.553 76.8977 131.105 76.2665 131.521 75.4824C132.207 74.1845 132.337 72.8002 131.904 71.3694C131.47 69.9408 130.599 68.8643 129.308 68.1711C128.016 67.48 126.641 67.3515 125.222 67.7857Z" fill="#F368A3"/>
        <path d="M129.308 68.1709C128.016 67.4799 126.643 67.3492 125.224 67.7855C124.766 67.9251 124.344 68.1133 123.959 68.3459C124.973 68.2507 125.959 68.4566 126.901 68.9594C128.192 69.6527 129.064 70.7291 129.497 72.1577C129.93 73.5886 129.801 74.9706 129.114 76.2708C128.698 77.0549 128.144 77.6839 127.46 78.1579C127.376 78.2155 127.288 78.2708 127.2 78.324C127.578 78.2886 127.959 78.2133 128.344 78.0959C128.907 77.9231 129.416 77.6795 129.867 77.3694C130.553 76.8976 131.105 76.2664 131.521 75.4823C132.208 74.1844 132.338 72.8001 131.904 71.3692C131.471 69.9406 130.597 68.8664 129.308 68.1709Z" fill="#DB4786"/>
        <path d="M130.067 21.8467C126.06 19.8976 121.426 19.7071 116.291 21.2819C111.158 22.8567 107.391 25.6209 105.094 29.4992C103.098 32.8724 102.524 36.651 103.393 40.7353C103.538 41.4241 103.97 42.0222 104.57 42.381C105.173 42.7376 105.901 42.8262 106.57 42.6202L109.626 41.6833C110.845 41.309 111.591 40.0731 111.356 38.8084C110.942 36.5647 111.219 34.6576 112.207 32.9765C113.402 30.941 115.501 29.4526 118.445 28.549C121.38 27.6497 123.941 27.7472 126.053 28.8413C128.159 29.9333 129.671 31.9555 130.546 34.8526C131.754 38.846 131.433 41.8848 129.589 43.8849C127.646 45.989 124.141 47.803 119.162 49.2759L117.84 49.6813C116.52 50.0866 115.772 51.4975 116.174 52.8264L119.684 64.4236C119.88 65.0681 120.311 65.5975 120.9 65.912C121.49 66.2287 122.168 66.2952 122.808 66.0981L125.908 65.1479C126.159 65.0703 126.388 64.9596 126.593 64.8178C127.47 64.2132 127.899 63.0814 127.574 62.0027L125.301 54.492C125.272 54.399 125.325 54.2993 125.415 54.2683C131.147 52.3414 135.195 49.6879 137.446 46.3833C139.842 42.8683 140.227 38.3432 138.588 32.9278C136.96 27.5345 134.091 23.8069 130.067 21.8467Z" fill="#F368A3"/>
        <path d="M130.067 21.846C126.06 19.8969 121.426 19.7064 116.291 21.2812C113.114 22.2557 110.458 23.6865 108.353 25.5559C109.653 24.8626 111.083 24.2757 112.636 23.7995C117.77 22.2247 122.406 22.4152 126.412 24.3643C130.436 26.3245 133.306 30.0521 134.936 35.4454C136.573 40.8586 136.19 45.3859 133.794 48.9009C133.103 49.9153 132.241 50.8699 131.213 51.7581C133.963 50.2276 136.051 48.4291 137.449 46.3803C139.845 42.8653 140.23 38.3403 138.591 32.9249C136.96 27.5338 134.091 23.8061 130.067 21.846Z" fill="#DB4786"/>
        <path d="M152.114 39.5988C151.033 39.5678 150.094 39.9244 149.322 40.6575C148.549 41.3906 148.14 42.3142 148.109 43.4018C148.078 44.4893 148.433 45.435 149.161 46.2125C149.889 46.9899 150.807 47.4019 151.887 47.4329C152.316 47.4462 152.721 47.3974 153.104 47.2889C153.685 47.1228 154.213 46.8171 154.679 46.3741C155.452 45.6388 155.861 44.7174 155.892 43.6299C155.922 42.5446 155.57 41.5988 154.84 40.8192C154.109 40.0418 153.192 39.6298 152.114 39.5988Z" fill="#F368A3"/>
        <path d="M154.84 40.819C154.11 40.0416 153.192 39.6296 152.114 39.5986C151.767 39.5876 151.432 39.6186 151.113 39.6894C151.835 39.8622 152.466 40.2321 152.999 40.7991C153.729 41.5787 154.081 42.5245 154.05 43.6098C154.02 44.6973 153.61 45.6209 152.838 46.3541C152.372 46.797 151.844 47.1027 151.263 47.2688C151.19 47.2887 151.118 47.3065 151.045 47.322C151.313 47.3862 151.593 47.4239 151.885 47.4327C152.314 47.446 152.719 47.3973 153.102 47.2887C153.683 47.1226 154.211 46.817 154.678 46.374C155.45 45.6386 155.859 44.7172 155.89 43.6297C155.925 42.5444 155.571 41.5987 154.84 40.819Z" fill="#DB4786"/>
        <path d="M166.048 9.06222C163.735 6.7831 160.584 5.56933 156.681 5.45416C152.78 5.33899 149.546 6.36448 147.068 8.50185C144.914 10.3601 143.649 12.832 143.304 15.8509C143.246 16.3603 143.403 16.8741 143.737 17.2595C144.069 17.6471 144.553 17.8775 145.062 17.893L147.385 17.9617C148.311 17.9882 149.11 17.3105 149.24 16.3847C149.471 14.7412 150.102 13.492 151.172 12.564C152.465 11.441 154.254 10.905 156.494 10.9692C158.725 11.0357 160.468 11.7002 161.671 12.9494C162.87 14.1941 163.447 15.9417 163.383 18.1433C163.295 21.1777 162.373 23.1977 160.639 24.1456C158.815 25.1423 155.981 25.5742 152.208 25.4236L151.202 25.3948C150.199 25.366 149.359 26.1634 149.33 27.1734L149.075 35.9887C149.062 36.4782 149.238 36.9433 149.57 37.2999C149.904 37.6565 150.355 37.8603 150.842 37.8736L153.198 37.9422C153.387 37.9489 153.572 37.9245 153.746 37.8736C154.49 37.6609 155.049 36.9809 155.071 36.1637L155.236 30.4559C155.238 30.385 155.297 30.3274 155.365 30.3274C159.761 30.3385 163.163 29.4547 165.478 27.705C167.94 25.8423 169.249 22.8123 169.368 18.697C169.487 14.595 168.369 11.3546 166.048 9.06222Z" fill="#F368A3"/>
        <path d="M166.048 9.06148C163.735 6.78236 160.585 5.5686 156.681 5.45342C154.265 5.38254 152.107 5.75022 150.224 6.54536C151.28 6.3726 152.4 6.30173 153.581 6.33495C157.482 6.45012 160.635 7.66388 162.945 9.94301C165.269 12.2354 166.384 15.4758 166.266 19.5734C166.147 23.6886 164.838 26.7186 162.376 28.5813C161.665 29.1196 160.851 29.5758 159.938 29.9479C162.186 29.536 164.041 28.7851 165.476 27.6976C167.938 25.8349 169.247 22.8049 169.366 18.6896C169.487 14.5943 168.369 11.3539 166.048 9.06148Z" fill="#DB4786"/>
        <path d="M153.779 84.3258L152.56 70.8415L149.427 70.7042L147.286 81.0965L144.681 85.4731L148.663 89.3381C148.663 89.3381 152.049 87.2273 152.489 87.0789L153.779 84.3258Z" fill="#267FF9"/>
        <path d="M152.305 70.8315L152.285 67.2899L150.149 66.1891L148.111 67.4627L149.363 69.1504L150.518 70.754L152.305 70.8315Z" fill="#FABD92"/>
        <path d="M248.29 92.6559L249.285 99.5401L247.292 138.366L243.944 137.661L238.396 93.521L248.29 92.6559Z" fill="#2F486A"/>
        <path d="M231.857 91.3632L231.21 117.103L237.706 139.322L241.49 137.904L238.302 118.091L241.229 91.1432L231.857 91.3632Z" fill="#2F486A"/>
        <path d="M241.503 135.824L236.97 137.915L238.492 141.106L236.115 142.614C236.115 142.614 235.89 143.943 236.689 144.504C237.487 145.064 242.658 140.692 242.658 140.692L241.503 135.824Z" fill="#263B57"/>
        <path d="M248.29 136.58L243.374 137.415L244.021 140.893L241.338 141.728C241.338 141.728 240.779 142.951 241.406 143.702C242.032 144.453 248.153 141.581 248.153 141.581L248.29 136.58Z" fill="#263B57"/>
        <path d="M238.736 49.3868C239.087 50.5323 239.589 51.6304 240.225 52.6422C240.24 50.5388 240.544 48.4375 241.125 46.4182C241.17 46.265 241.213 46.0903 241.134 45.9501C241.059 45.8206 240.902 45.7688 240.757 45.7343C238.172 45.1065 238.125 47.3912 238.736 49.3868Z" fill="#2F486A"/>
        <path d="M240.154 52.6841C240.424 53.5492 240.87 54.5287 241.761 55.0551C242.811 55.6764 243.934 55.3592 244.717 54.8825C247.305 53.3054 251.791 44.6155 245.044 42.4797C238.919 40.5445 239.035 49.0942 240.154 52.6841Z" fill="#FABD92"/>
        <path d="M245.483 52.7232C245.886 53.323 246.804 53.1871 247.453 52.8764C250.125 51.6036 251.756 48.4257 251.24 45.496C250.809 43.0452 247.798 41.1403 247.108 44.1477C246.864 45.2134 247.476 46.7149 247.299 47.8993C247.046 49.595 246.221 51.2001 245.483 52.7232Z" fill="#2F486A"/>
        <path d="M238.896 39.3508C235.825 41.0616 234.451 44.8284 231.642 46.9469C234.166 48.1119 237.167 48.1874 239.745 47.1497C242.274 46.1314 248.27 45.5144 247.486 41.9871C246.688 38.3951 241.588 37.8514 238.896 39.3508Z" fill="#2F486A"/>
        <path d="M250.812 61.5696C252.572 64.6439 252.563 68.1238 252.321 71.4547C251.77 78.9926 252.484 87.7322 249.904 94.9378C245.03 94.9335 235.688 92.6833 230.834 92.1807C229.889 85.6287 230.44 81.7972 230.974 74.3758C231.237 70.7169 231.801 65.8089 233.087 62.3226C234.139 59.4684 236.949 55.7836 241.186 55.9022C245.157 56.0101 249.214 58.7737 250.812 61.5696Z" fill="#267FF9"/>
        <path d="M242.877 57.4236C242.433 57.6134 241.889 57.5336 241.362 57.0202C240.91 56.5779 241.049 56.4355 241.145 55.784C241.287 54.8239 241.54 53.8704 241.737 52.9211L244.36 53.4713C244.358 53.4713 243.833 56.0429 243.792 56.2176C243.666 56.7764 243.321 57.2337 242.877 57.4236Z" fill="#FABD92"/>
        <path d="M216.642 64.2444L214.593 62.2122L211.364 62.2898L210.995 63.9402L215.877 66.0631L216.642 64.2444Z" fill="#FABD92"/>
        <path d="M240.711 58.1062L238.379 55.9855L225.814 66.0626L216.781 62.8697L213.877 66.5976L225.964 73.7342L238.743 65.4909L240.711 58.1062Z" fill="#267FF9"/>
        <path d="M206.837 73.5829C205.082 73.3327 203.487 73.7404 202.092 74.7954C200.699 75.8503 199.865 77.2807 199.617 79.0454C199.368 80.8145 199.773 82.4195 200.821 83.8218C201.869 85.2241 203.29 86.0634 205.043 86.3136C205.74 86.4129 206.411 86.4085 207.053 86.3007C208.031 86.1367 208.946 85.7376 209.788 85.1012C211.181 84.0462 212.015 82.6159 212.263 80.8511C212.512 79.0864 212.107 77.4792 211.059 76.0747C210.011 74.6702 208.59 73.8332 206.837 73.5829Z" fill="#F368A3"/>
        <path d="M211.059 76.0737C210.011 74.6714 208.591 73.8322 206.837 73.5841C206.272 73.5042 205.721 73.4913 205.189 73.5474C206.334 73.9616 207.296 74.6822 208.061 75.7048C209.109 77.1092 209.514 78.7165 209.266 80.4812C209.017 82.2481 208.183 83.6784 206.79 84.7312C205.948 85.3676 205.035 85.7668 204.056 85.9307C203.936 85.9501 203.814 85.9652 203.691 85.9782C204.118 86.1314 204.568 86.2435 205.042 86.3126C205.738 86.4118 206.409 86.4075 207.052 86.2996C208.029 86.1357 208.944 85.7366 209.786 85.1001C211.179 84.0452 212.013 82.6148 212.262 80.8501C212.512 79.0854 212.107 77.4803 211.059 76.0737Z" fill="#DB4786"/>
        <path d="M235.086 26.3756C231.732 22.2334 226.816 19.6769 220.476 18.7708C214.139 17.8669 208.683 18.9434 204.255 21.9724C200.408 24.6044 197.894 28.4014 196.786 33.2576C196.6 34.0753 196.763 34.9425 197.236 35.6351C197.708 36.3276 198.454 36.7914 199.279 36.9101L203.053 37.4494C204.559 37.663 205.982 36.7051 206.364 35.2187C207.039 32.5824 208.295 30.6623 210.204 29.3463C212.515 27.752 215.532 27.2083 219.167 27.7261C222.791 28.2439 225.51 29.6483 227.246 31.9028C228.976 34.1508 229.597 37.1042 229.094 40.6812C228.399 45.6108 226.528 48.7325 223.535 49.9579C220.38 51.248 215.682 51.4271 209.561 50.4929L207.928 50.2599C206.297 50.0269 204.784 51.1725 204.553 52.8143L202.536 67.1328C202.425 67.9267 202.626 68.7184 203.106 69.3613C203.586 70.0042 204.285 70.4185 205.074 70.5306L208.901 71.0765C209.21 71.1196 209.514 71.1153 209.806 71.0657C211.057 70.8564 212.088 69.8511 212.277 68.5221L213.586 59.2497C213.603 59.1354 213.708 59.0512 213.822 59.0642C220.982 59.8904 226.687 59.0771 230.778 56.6479C235.129 54.0655 237.812 49.3668 238.753 42.6832C239.689 36.0255 238.455 30.5393 235.086 26.3756Z" fill="#F368A3"/>
        <path d="M235.086 26.3753C231.732 22.2332 226.815 19.6767 220.476 18.7706C216.552 18.2118 212.967 18.4124 209.752 19.3639C211.505 19.2754 213.344 19.366 215.264 19.64C221.603 20.5439 226.518 23.1026 229.874 27.2448C233.243 31.4085 234.477 36.8947 233.538 43.5524C232.598 50.2359 229.914 54.9347 225.564 57.5171C224.308 58.2635 222.898 58.8568 221.342 59.2969C225.082 59.038 228.238 58.1557 230.776 56.6498C235.126 54.0674 237.81 49.3687 238.75 42.6851C239.689 36.0253 238.455 30.5391 235.086 26.3753Z" fill="#DB4786"/>
        <path d="M256.675 64.6047L253.066 51.928L250.045 52.3724L249.794 68.1169L252.691 70.3412C252.691 70.3412 255.55 67.7006 255.943 67.4762L256.675 64.6047Z" fill="#267FF9"/>
        <path d="M252.82 51.9623L252.158 48.5774L249.916 47.9172L248.197 49.5115L249.7 50.8944L251.097 52.2169L252.82 51.9623Z" fill="#FABD92"/>
    </g>
    <defs>
        <clipPath id="clip0">
            <rect width="360" height="157" fill="white"/>
        </clipPath>
    </defs>
</svg>