<svg width="227" height="211" viewBox="0 0 227 211" fill="none" xmlns="http://www.w3.org/2000/svg">
    <g clip-path="url(#clip0)">
        <g opacity="0.5">
            <path opacity="0.25" d="M5.63907 101.452C-31.5834 76.812 -67.0736 89.1722 -80.1659 98.4323L-85 214.988C-13.093 239.145 142.081 272.965 187.521 214.988C244.322 142.518 155.496 96.0163 118.032 110.51C80.5674 125.004 52.1671 132.252 5.63907 101.452Z" fill="#267FF9"/>
        </g>
        <path d="M130.132 173.544L132.808 172.787L137.11 179.314H132.808L130.216 177.99L130.132 173.544Z" fill="#2F486A"/>
        <path d="M82.42 160.356C82.42 160.356 78.6838 163.095 78.7327 165.515C78.7327 165.515 78.3357 170.615 79.3445 172.624L84.9652 177.748L95.3447 177.081L98.6948 162.352L82.42 160.356Z" fill="#1C70E3"/>
        <path d="M93.8139 163.628C93.8139 163.628 89.3325 162.574 87.7962 165.635L84.7424 171.282L90.1238 178.459L130.894 178.328L130.812 173.451L117.621 169.724C118.779 168.943 119.75 167.709 120.332 166.454C121.376 164.202 120.561 162.539 119.72 160.423C119.462 159.775 118.233 156.179 117.178 156.462C117.172 156.465 93.8139 163.628 93.8139 163.628Z" fill="#267FF9"/>
        <path d="M69.7891 107.837L67.9073 104.477L69.305 103.609L71.1025 105.624L71.5729 104.905L72.8347 107.976L71.5022 109.076L69.7891 107.837Z" fill="#FABD92"/>
        <path d="M97.1238 115.607L84.1937 119.084L72.7565 106.794L70.2222 109.108L80.7566 129.436L96.5501 126.231L97.1238 115.607Z" fill="#6AA9FF"/>
        <path d="M84.3804 152.144C87.1948 144.3 87.7359 135.987 88.7502 127.754C89.0493 125.325 89.3648 122.842 90.4498 120.65C91.6952 118.132 93.6639 116.847 95.9264 116.182C98.8088 115.338 102.17 115.502 105.142 115.417C107.956 115.42 110.102 126.088 112.802 131.312C114.458 134.514 116.179 137.357 117.254 140.826C118.284 144.155 119.269 147.542 119.821 150.989C120.653 156.195 123.092 159.89 120.593 161.57C120.367 161.638 120.15 161.703 119.943 161.769C115.891 163.075 111.709 164.004 107.472 164.423C103.712 164.796 99.9074 164.761 96.1575 164.268C91.0262 163.593 86.0636 162.702 81.6149 159.865C82.534 157.29 83.4585 154.717 84.3804 152.144Z" fill="#6AA9FF"/>
        <path d="M106.774 107.582C105.33 102.687 98.3254 100.77 96.5008 106.346C95.9515 108.02 95.598 109.807 95.8754 111.546C96.1555 113.286 97.1562 114.982 98.7442 115.742C98.7524 115.747 98.7633 115.75 98.7714 115.756C98.6926 116.202 98.6164 116.649 98.5375 117.095C98.5212 117.19 98.5049 117.297 98.5566 117.381C98.6164 117.476 98.7361 117.504 98.8448 117.523C99.3778 117.621 99.9108 117.719 100.444 117.814C100.708 117.863 100.982 117.909 101.24 117.836C101.806 117.675 102.059 117.011 102.103 116.425C102.113 116.287 102.116 116.142 102.119 116.001C105.328 115.018 107.718 110.781 106.774 107.582Z" fill="#FABD92"/>
        <path d="M98.4425 99.0295C97.1562 98.7953 96.0142 100.015 94.8014 100.633C93.7925 101.148 92.6613 101.257 91.6171 101.679C90.5729 102.101 89.5314 103.015 89.4716 104.203C88.4465 103.625 87.337 103.032 86.1623 103.22C84.9876 103.408 83.8563 104.766 84.286 105.934C84.6694 106.977 86.0046 107.266 86.4179 108.295C87.0732 109.923 85.08 112.352 86.3499 113.457C86.6545 113.724 87.0787 113.8 87.3778 114.072C87.7503 114.413 87.8537 114.979 88.0087 115.483C88.7075 117.772 90.9373 119.324 93.1997 119.096C94.6219 118.486 95.7803 117.165 96.3323 115.627C96.9958 113.776 96.0169 113.089 95.9054 111.325C95.783 109.397 96.4601 107.385 97.7164 105.931C98.5349 104.987 99.6852 104.186 100.876 104.113C101.36 104.083 101.194 104.48 101.752 104.124C101.991 103.971 102.328 103.375 102.404 103.084C101.137 101.997 100.134 99.3371 98.4425 99.0295Z" fill="#2F486A"/>
        <path d="M112.34 101.976C113.001 102.183 113.727 102.18 114.353 102.48C115.294 102.929 115.204 103.92 115.446 104.789C115.715 105.752 116.107 107.046 116.71 107.808C117.145 108.358 117.768 108.682 118.307 109.112C118.845 109.542 119.332 110.169 119.296 110.912C119.261 111.617 118.769 112.232 118.676 112.935C118.557 113.98 118.723 114.525 118.364 115.584C118.179 116.131 117.975 116.711 117.548 117.076C116.985 117.555 116.207 117.52 115.527 117.384C114.848 117.248 114.146 117.035 113.466 117.239C111.99 117.683 112.213 119.173 111.783 120.4C111.13 122.268 108.906 123.3 107.255 122.573C105.855 121.958 105.088 120.283 105.205 118.658C105.265 117.844 105.613 117.095 105.662 116.281C105.711 115.494 105.303 114.391 106.034 113.79C106.214 113.643 106.437 113.569 106.6 113.403C106.731 113.267 106.807 113.082 106.856 112.897C107.03 112.251 106.907 111.538 106.543 111.029C106.279 110.661 105.893 110.389 105.738 109.951C105.561 109.45 105.733 108.875 105.784 108.331C105.907 107.013 105.227 105.692 104.145 105.148C103.432 104.789 102.785 104.568 102.168 104.037C102.075 103.955 100.675 102.635 100.629 102.91C100.71 102.433 101.001 102.022 101.298 101.647C101.784 101.029 102.32 100.43 102.989 100.073C105.148 98.9184 105.159 101.766 106.872 101.448C107.285 101.372 107.606 101.004 107.984 100.792C108.697 100.389 109.548 100.568 110.252 100.911C110.959 101.249 111.598 101.742 112.34 101.976Z" fill="#2F486A"/>
        <path d="M73.6403 160.096C72.1909 159.747 70.8231 159.96 69.5723 160.725C68.3214 161.49 67.5111 162.614 67.163 164.065C66.8149 165.517 67.0243 166.889 67.7912 168.138C68.5553 169.391 69.6783 170.202 71.1277 170.551C71.7014 170.69 72.2643 170.739 72.8109 170.701C73.643 170.643 74.4397 170.382 75.1957 169.922C76.4466 169.154 77.2569 168.032 77.605 166.581C77.953 165.133 77.7409 163.76 76.9768 162.508C76.21 161.256 75.0869 160.444 73.6403 160.096Z" fill="#F368A3"/>
        <path d="M76.977 162.508C76.2101 161.256 75.0871 160.444 73.6404 160.096C73.1727 159.984 72.7132 159.93 72.2645 159.933C73.189 160.368 73.9395 161.046 74.497 161.958C75.2611 163.213 75.4732 164.583 75.1251 166.031C74.7771 167.483 73.9667 168.607 72.7159 169.372C71.9599 169.835 71.1632 170.094 70.3311 170.151C70.2277 170.159 70.1271 170.162 70.0238 170.162C70.3692 170.325 70.7363 170.453 71.1278 170.548C71.7016 170.687 72.2645 170.736 72.811 170.698C73.6431 170.641 74.4399 170.38 75.1958 169.919C76.4467 169.152 77.257 168.03 77.6051 166.579C77.9532 165.133 77.7411 163.761 76.977 162.508Z" fill="#DB4786"/>
        <path d="M101.045 123.048C98.5648 119.331 94.6545 116.805 89.42 115.544C84.1854 114.283 79.5327 114.744 75.5844 116.908C72.1527 118.792 69.7488 121.752 68.4354 125.705C68.2152 126.372 68.2832 127.107 68.6231 127.72C68.963 128.335 69.5503 128.782 70.2329 128.945L73.3491 129.697C74.5918 129.996 75.8617 129.313 76.2995 128.104C77.0745 125.964 78.2792 124.464 79.9814 123.522C82.0426 122.381 84.6123 122.168 87.6144 122.89C90.6083 123.611 92.7728 125 94.0454 127.018C95.3153 129.03 95.6008 131.537 94.8938 134.475C93.9203 138.526 92.1066 140.974 89.5015 141.755C86.7578 142.578 82.8094 142.349 77.7598 141.08L76.411 140.756C75.065 140.432 73.7054 141.265 73.3818 142.613L70.5537 154.375C70.396 155.029 70.5021 155.704 70.8529 156.276C71.2036 156.847 71.7557 157.25 72.4083 157.408L75.5708 158.171C75.8264 158.233 76.082 158.252 76.3294 158.236C77.3954 158.162 78.339 157.408 78.6 156.316L80.4301 148.698C80.4519 148.603 80.547 148.543 80.6422 148.562C86.5729 149.823 91.4132 149.605 95.0298 147.909C98.8776 146.106 101.496 142.409 102.818 136.917C104.131 131.453 103.533 126.786 101.045 123.048Z" fill="#F368A3"/>
        <path d="M101.045 123.048C98.5652 119.331 94.6549 116.805 89.4204 115.544C86.179 114.763 83.1606 114.643 80.3951 115.179C81.8717 115.244 83.4026 115.468 84.988 115.852C90.2226 117.112 94.1356 119.636 96.6128 123.355C99.1037 127.091 99.6992 131.76 98.3858 137.227C97.0669 142.719 94.4456 146.417 90.5978 148.219C89.4856 148.739 88.2592 149.12 86.9214 149.362C90.073 149.447 92.7868 148.965 95.0302 147.914C98.878 146.112 101.497 142.414 102.818 136.923C104.132 131.453 103.533 126.786 101.045 123.048Z" fill="#DB4786"/>
        <path d="M84.1548 146.886L80.8373 146.101L81.1119 144.667L83.5022 144.702L83.3172 143.964L86.0746 144.982L85.9903 146.51L84.1548 146.886Z" fill="#FABD92"/>
        <path d="M106.115 133.19L100.557 143.988L85.2559 144.323L85.245 147.367L103.399 150.98L109.8 140.784L106.115 133.19Z" fill="#6AA9FF"/>
        <path d="M35.3623 182.97L39.6044 185.306L39.2373 187.299L31.694 186.265L32.0992 183.392L35.3623 182.97Z" fill="#2F486A"/>
        <path d="M16.1727 185.156L13.2196 185.121L12.499 187.623L12.5751 187.645L12.5561 187.647L17.4725 190.476L19.7947 190.705L20.0558 188.048L19.4222 187.596L16.1727 185.156Z" fill="#2F486A"/>
        <path d="M25.2741 138.019C25.7473 137.97 27.0416 154.976 27.0416 154.976L17.856 185.878L12.5589 184.836L15.7866 153.979C15.7866 153.979 4.57238 141.03 7.80286 131.359C12.6785 133.728 25.2741 138.019 25.2741 138.019Z" fill="#8CABEF"/>
        <path d="M38.5114 138.163L39.5828 153.326L36.627 183.504L31.1748 183.227C31.1748 183.227 29.8614 154.644 29.3203 154.061C28.7792 153.479 24.1374 138.479 24.1374 138.479L38.5114 138.163Z" fill="#8CABEF"/>
        <path d="M31.3407 145.081C14.0217 144.762 12.7518 136.014 8.93941 135.059C5.12701 134.103 7.11479 129.559 7.11479 129.559C7.11479 129.559 7.83539 127.531 8.14539 126.469C10.3697 118.834 17.0482 109.035 17.0482 109.033C20.3413 104.532 23.6479 100.557 26.5004 98.1582C34.9899 91.0193 44.0831 90.6871 44.0831 90.6871C57.1791 94.7875 52.5591 100.952 52.7086 102.574C48.4013 106.528 45.2796 112.452 42.9791 118.81C41.8941 122.178 40.6161 127.996 41.508 135.059C41.7935 137.324 42.1253 139.287 42.4543 140.997C42.5196 143.232 40.3768 145.225 31.3407 145.081Z" fill="#267FF9"/>
        <path d="M44.1355 92.0679C44.1355 92.0679 47.0506 90.4697 48.8562 93.2496C51.0479 96.6257 38.659 111.851 38.9526 144.412C35.7058 145.071 27.3387 146.642 18.7104 142.566C20.671 132.892 29.1307 103.716 44.1355 92.0679Z" fill="white"/>
        <path d="M50.5437 81.7868C52.0121 82.9331 53.2847 85.3699 52.7789 87.2894C52.5342 88.2124 51.8707 88.8331 51.6477 89.8324C51.2044 91.8009 47.7863 93.2494 49.2221 95.5337C49.9617 96.7072 51.3921 97.2027 52.7163 97.6193C52.8768 97.6683 53.0454 97.72 53.2112 97.6873C53.4832 97.6329 53.6654 97.3633 53.717 97.0911C53.7687 96.8188 53.717 96.5384 53.6871 96.2634C53.3853 93.3828 55.335 90.4967 56.0556 87.774C56.7762 85.0568 56.7381 81.9529 54.8564 79.6958C53.252 79.8455 52.6021 79.5352 51.5715 80.7767L50.5437 81.7868Z" fill="#2F486A"/>
        <path d="M47.1061 93.3116C49.0178 93.4613 50.8832 92.4131 52.0933 90.9265C53.3033 89.4399 53.9424 87.564 54.3394 85.6881C55.6582 79.4422 48.0198 77.422 43.9926 81.2419C40.482 84.5718 41.5507 92.876 47.1061 93.3116Z" fill="#FABD92"/>
        <path d="M37.5946 92.1386C38.6089 92.0624 39.6232 91.9589 40.5314 91.3C42.0025 90.2382 42.87 87.8422 43.7728 86.3257C44.7245 84.7274 45.8122 83.0121 47.5689 82.4023C48.7164 82.0048 49.7334 82.2634 50.8102 82.6963C51.5472 82.9931 51.4601 83.2817 52.2433 83.1483C52.8442 83.0448 53.6274 82.3151 53.9591 81.8359C54.5166 81.0246 54.5519 79.9382 54.2555 78.9989C53.7987 77.5532 52.953 76.5757 51.6043 75.974C46.8755 73.8612 42.1032 75.1899 38.7993 79.293C37.2112 81.2669 36.6429 83.9651 35.0467 85.8356C34.0623 86.99 32.8359 87.5209 31.8951 88.7951C29.4532 92.1032 25.4422 95.9613 24.001 99.8356C23.9466 99.9799 23.8977 100.143 23.9657 100.279C24.1016 100.56 24.5204 100.465 24.7978 100.323C26.4239 99.5116 28.05 98.6976 29.6761 97.8862C30.3152 97.5676 30.9623 97.2409 31.4872 96.759C32.7978 95.5556 33.252 93.4809 34.84 92.6859C35.7102 92.253 36.6538 92.2094 37.5946 92.1386Z" fill="#2F486A"/>
        <path d="M30.9522 100.342L17.8834 97.2733L14.3892 79.8835L18.7291 80.2619L22.0765 91.6183L39.0175 92.1029L39.9856 93.3962L30.9522 100.342Z" fill="#267FF9"/>
        <path d="M19.1481 94.6331C17.3915 95.1694 16.0699 96.2503 15.2215 97.8458C14.3731 99.4413 14.2127 101.143 14.7484 102.902C15.2841 104.663 16.3636 105.984 17.9571 106.833C19.5506 107.683 21.2501 107.844 23.0068 107.307C23.7029 107.095 24.331 106.795 24.8885 106.414C25.7369 105.834 26.4194 105.058 26.9334 104.094C27.7818 102.499 27.9422 100.797 27.4065 99.0384C26.8708 97.2822 25.794 95.959 24.1978 95.1068C22.6016 94.2573 20.9021 94.0994 19.1481 94.6331Z" fill="#F368A3"/>
        <path d="M24.1977 95.107C22.6015 94.2575 20.9047 94.0968 19.1507 94.6332C18.5851 94.8047 18.063 95.0362 17.5872 95.3221C18.8407 95.205 20.059 95.4582 21.2228 96.0762C22.819 96.9284 23.8958 98.2517 24.4315 100.008C24.9672 101.767 24.8068 103.466 23.9584 105.064C23.4445 106.028 22.7592 106.801 21.9135 107.384C21.8102 107.454 21.7014 107.522 21.5926 107.588C22.0603 107.544 22.5308 107.452 23.0066 107.307C23.7028 107.095 24.3309 106.795 24.8884 106.414C25.7368 105.834 26.4193 105.058 26.9333 104.095C27.7817 102.499 27.9421 100.797 27.4064 99.0385C26.8707 97.2824 25.7912 95.9619 24.1977 95.107Z" fill="#DB4786"/>
        <path d="M25.1355 38.1614C20.1837 35.7655 14.457 35.5313 8.11021 37.4671C1.76617 39.403 -2.88921 42.8009 -5.72812 47.5683C-8.19449 51.715 -8.90421 56.3599 -7.83011 61.3805C-7.65063 62.2273 -7.11766 62.9624 -6.3753 63.4035C-5.63022 63.8418 -4.73015 63.9507 -3.90349 63.6975L-0.126437 62.5458C1.38003 62.0857 2.30186 60.5664 2.0109 59.0118C1.49968 56.2537 1.84231 53.9095 3.06326 51.8429C4.53982 49.3408 7.13399 47.5111 10.7724 46.4003C14.3999 45.2949 17.5651 45.4147 20.1756 46.7597C22.7779 48.102 24.646 50.5878 25.7283 54.1491C27.2212 59.0581 26.8242 62.7936 24.5454 65.2522C22.1443 67.8388 17.8125 70.0686 11.6588 71.8792L10.0246 72.3775C8.39301 72.8757 7.46846 74.6101 7.96609 76.2437L12.3033 90.4997C12.5453 91.292 13.0783 91.9427 13.8071 92.3294C14.5358 92.7187 15.3734 92.8004 16.1647 92.5581L19.9961 91.39C20.3061 91.2947 20.5889 91.1586 20.8418 90.9843C21.9268 90.241 22.457 88.8498 22.0546 87.5238L19.2456 78.2912C19.2102 78.1768 19.2755 78.0543 19.387 78.0162C26.4707 75.6474 31.4741 72.3856 34.2559 68.3234C37.2172 64.0025 37.6931 58.44 35.6672 51.783C33.655 45.1533 30.109 40.571 25.1355 38.1614Z" fill="#F368A3"/>
        <path d="M25.1356 38.1613C20.1839 35.7653 14.4571 35.5312 8.11035 37.467C4.18374 38.665 0.901588 40.4239 -1.70074 42.7218C-0.0936614 41.8696 1.67386 41.1481 3.59366 40.5627C9.93769 38.6269 15.6672 38.861 20.6189 41.257C25.5925 43.6666 29.1384 48.2489 31.1534 54.8786C33.1765 61.5329 32.7033 67.0981 29.7421 71.419C28.8882 72.666 27.8223 73.8394 26.5524 74.9312C29.9515 73.0499 32.532 70.839 34.2588 68.3206C37.22 63.9996 37.6959 58.4372 35.6701 51.7802C33.6551 45.1532 30.1092 40.5709 25.1356 38.1613Z" fill="#DB4786"/>
        <path d="M52.3826 59.9842C51.0475 59.946 49.8863 60.3844 48.9319 61.2856C47.9774 62.1868 47.4716 63.3222 47.4336 64.659C47.3955 65.9959 47.8333 67.1585 48.7334 68.1141C49.6334 69.0698 50.7674 69.5762 52.1025 69.6143C52.6328 69.6307 53.1331 69.5708 53.6063 69.4373C54.3242 69.2331 54.9768 68.8574 55.5533 68.3129C56.5077 67.4089 57.0135 66.2763 57.0516 64.9395C57.0897 63.6053 56.6546 62.4428 55.7518 61.4844C54.849 60.5287 53.7151 60.0223 52.3826 59.9842Z" fill="#F368A3"/>
        <path d="M55.7522 61.4842C54.8494 60.5286 53.7155 60.0221 52.383 59.984C51.9534 59.9704 51.5401 60.0085 51.1458 60.0956C52.0377 60.308 52.8181 60.7627 53.4762 61.4597C54.379 62.4181 54.814 63.5807 54.776 64.9148C54.7379 66.2517 54.2321 67.387 53.2777 68.2882C52.7012 68.8328 52.0486 69.2085 51.3307 69.4127C51.2409 69.4372 51.1512 69.459 51.0615 69.4781C51.3932 69.557 51.7386 69.6033 52.1002 69.6142C52.6305 69.6305 53.1308 69.5706 53.604 69.4372C54.3219 69.233 54.9745 68.8573 55.551 68.3127C56.5054 67.4088 57.0112 66.2762 57.0493 64.9393C57.0928 63.6052 56.655 62.4426 55.7522 61.4842Z" fill="#DB4786"/>
        <path d="M69.6035 22.446C66.7456 19.6443 62.8516 18.1523 58.0276 18.0107C53.2063 17.8691 49.209 19.1298 46.1471 21.7571C43.485 24.0415 41.9214 27.08 41.4945 30.791C41.4238 31.4173 41.6169 32.0489 42.0302 32.5227C42.4408 32.9991 43.039 33.2823 43.6672 33.3014L46.5387 33.3858C47.6835 33.4184 48.6706 32.5853 48.8311 31.4472C49.1166 29.427 49.897 27.8914 51.2186 26.7506C52.8175 25.3702 55.0282 24.7113 57.7965 24.7902C60.5538 24.8719 62.7074 25.6887 64.1949 27.2243C65.6769 28.7545 66.3893 30.9027 66.3105 33.609C66.2017 37.3391 65.0623 39.8222 62.9195 40.9875C60.6653 42.2127 57.1629 42.7436 52.4993 42.5585L51.2566 42.5231C50.0167 42.4877 48.9779 43.4679 48.9425 44.7094L48.6271 55.5457C48.6108 56.1475 48.8283 56.7192 49.2389 57.1576C49.6523 57.5959 50.2097 57.8464 50.8107 57.8628L53.723 57.9472C53.9569 57.9553 54.1853 57.9254 54.4001 57.8628C55.3192 57.6014 56.0099 56.7655 56.0371 55.7608L56.241 48.7445C56.2438 48.6573 56.3172 48.5865 56.4015 48.5865C61.8346 48.6002 66.0385 47.5138 68.8992 45.3629C71.9421 43.0731 73.56 39.3485 73.7069 34.2897C73.8537 29.2473 72.4723 25.264 69.6035 22.446Z" fill="#F368A3"/>
        <path d="M69.6037 22.4458C66.7457 19.6442 62.8518 18.1521 58.0278 18.0106C55.042 17.9234 52.3744 18.3754 50.0468 19.3529C51.352 19.1405 52.7361 19.0534 54.1963 19.0942C59.0176 19.2358 62.9143 20.7278 65.7695 23.5295C68.6411 26.3474 70.0197 30.3307 69.8729 35.3677C69.7261 40.4265 68.1081 44.1511 65.0652 46.4409C64.1869 47.1025 63.1808 47.6634 62.0523 48.1208C64.8314 47.6144 67.1237 46.6914 68.8967 45.3545C71.9395 43.0648 73.5575 39.3401 73.7043 34.2814C73.8539 29.2471 72.4725 25.2638 69.6037 22.4458Z" fill="#DB4786"/>
        <path d="M54.4414 114.965L52.9349 98.3896L49.0627 98.2208L46.4169 110.996L43.1973 116.376L48.1191 121.127C48.1191 121.127 52.3041 118.532 52.8479 118.35L54.4414 114.965Z" fill="#267FF9"/>
        <path d="M52.6194 98.3774L52.595 94.0238L49.9546 92.6707L47.4365 94.2362L48.9838 96.3109L50.4114 98.2821L52.6194 98.3774Z" fill="#FABD92"/>
        <path d="M171.246 125.205L172.475 133.667L170.012 181.395L165.875 180.528L159.017 126.268L171.246 125.205Z" fill="#2F486A"/>
        <path d="M150.936 123.616L150.136 155.257L158.164 182.57L162.842 180.827L158.901 156.471L162.519 123.345L150.936 123.616Z" fill="#2F486A"/>
        <path d="M162.858 178.271L157.256 180.841L159.136 184.763L156.199 186.617C156.199 186.617 155.921 188.25 156.909 188.94C157.894 189.629 164.285 184.254 164.285 184.254L162.858 178.271Z" fill="#263B57"/>
        <path d="M171.246 179.2L165.17 180.226L165.97 184.501L162.653 185.528C162.653 185.528 161.962 187.031 162.738 187.954C163.512 188.877 171.076 185.347 171.076 185.347L171.246 179.2Z" fill="#263B57"/>
        <path d="M159.438 72.0162C159.873 73.4244 160.492 74.7742 161.279 76.018C161.298 73.4323 161.674 70.8493 162.392 68.367C162.447 68.1788 162.5 67.9639 162.402 67.7916C162.309 67.6324 162.116 67.5688 161.936 67.5264C158.742 66.7546 158.683 69.5631 159.438 72.0162Z" fill="#2F486A"/>
        <path d="M161.191 76.0696C161.525 77.133 162.076 78.337 163.178 78.9841C164.475 79.7479 165.863 79.358 166.83 78.772C170.03 76.8334 175.573 66.1511 167.235 63.5257C159.665 61.1468 159.808 71.6567 161.191 76.0696Z" fill="#FABD92"/>
        <path d="M167.778 76.1178C168.276 76.855 169.41 76.6879 170.212 76.306C173.515 74.7414 175.531 70.835 174.893 67.2336C174.36 64.2209 170.639 61.8792 169.786 65.5761C169.484 66.8862 170.242 68.732 170.022 70.1879C169.709 72.2724 168.689 74.2455 167.778 76.1178Z" fill="#2F486A"/>
        <path d="M159.637 59.6793C155.841 61.7823 154.143 66.4127 150.671 69.0169C153.791 70.449 157.499 70.5418 160.685 69.2662C163.811 68.0145 171.222 67.256 170.252 62.92C169.267 58.5045 162.963 57.8361 159.637 59.6793Z" fill="#2F486A"/>
        <path d="M174.363 86.9922C176.538 90.7713 176.527 95.0489 176.228 99.1436C175.547 108.41 176.429 119.153 173.24 128.01C167.217 128.005 155.672 125.239 149.673 124.621C148.505 116.567 149.185 111.857 149.845 102.734C150.171 98.2366 150.867 92.2033 152.456 87.9177C153.757 84.4091 157.229 79.8795 162.466 80.0254C167.374 80.158 172.387 83.5552 174.363 86.9922Z" fill="#267FF9"/>
        <path d="M164.555 81.8955C164.007 82.1288 163.334 82.0307 162.683 81.3996C162.124 80.8559 162.296 80.6809 162.415 79.88C162.59 78.6998 162.903 77.5277 163.146 76.3608L166.388 77.037C166.386 77.037 165.737 80.1982 165.686 80.413C165.53 81.0999 165.104 81.6621 164.555 81.8955Z" fill="#FABD92"/>
        <path d="M132.133 90.2798L129.601 87.7817L125.609 87.8771L125.154 89.9059L131.187 92.5155L132.133 90.2798Z" fill="#FABD92"/>
        <path d="M161.879 82.7347L158.998 80.1278L143.468 92.5152L132.304 88.5903L128.716 93.1729L143.654 101.946L159.448 91.8125L161.879 82.7347Z" fill="#267FF9"/>
        <path d="M120.015 101.759C117.846 101.452 115.875 101.953 114.151 103.25C112.429 104.547 111.399 106.305 111.092 108.474C110.784 110.649 111.285 112.622 112.58 114.346C113.875 116.069 115.631 117.101 117.798 117.409C118.659 117.531 119.488 117.525 120.283 117.393C121.49 117.191 122.621 116.701 123.662 115.918C125.384 114.621 126.414 112.863 126.721 110.694C127.029 108.525 126.528 106.549 125.233 104.822C123.938 103.096 122.182 102.067 120.015 101.759Z" fill="#F368A3"/>
        <path d="M125.233 104.821C123.938 103.097 122.182 102.065 120.015 101.76C119.316 101.662 118.635 101.646 117.978 101.715C119.392 102.224 120.582 103.11 121.527 104.367C122.822 106.094 123.323 108.069 123.016 110.239C122.709 112.411 121.678 114.169 119.957 115.463C118.916 116.245 117.787 116.736 116.577 116.938C116.429 116.961 116.278 116.98 116.127 116.996C116.654 117.184 117.21 117.322 117.795 117.407C118.656 117.529 119.485 117.524 120.28 117.391C121.488 117.189 122.619 116.699 123.659 115.916C125.381 114.62 126.411 112.861 126.719 110.692C127.029 108.523 126.528 106.55 125.233 104.821Z" fill="#DB4786"/>
        <path d="M154.927 43.7291C150.782 38.6372 144.706 35.4946 136.871 34.3808C129.039 33.2696 122.296 34.593 116.824 38.3163C112.07 41.5518 108.963 46.2193 107.593 52.1889C107.363 53.194 107.564 54.2601 108.15 55.1114C108.732 55.9627 109.654 56.5329 110.674 56.6787L115.338 57.3417C117.2 57.6043 118.959 56.4268 119.43 54.5996C120.264 51.3588 121.817 48.9986 124.176 47.3808C127.032 45.421 130.761 44.7527 135.253 45.3892C139.732 46.0257 143.093 47.7521 145.239 50.5234C147.376 53.2868 148.144 56.9174 147.522 61.3144C146.664 67.3742 144.351 71.2116 140.651 72.7179C136.752 74.3038 130.946 74.5239 123.382 73.3756L121.364 73.0892C119.348 72.8028 117.478 74.211 117.192 76.2292L114.7 93.8304C114.562 94.8064 114.811 95.7796 115.404 96.5699C115.997 97.3602 116.861 97.8694 117.836 98.0073L122.566 98.6783C122.948 98.7313 123.324 98.726 123.684 98.665C125.231 98.4077 126.505 97.1719 126.738 95.5383L128.356 84.1401C128.377 83.9995 128.507 83.8961 128.647 83.912C137.497 84.9277 144.547 83.9279 149.604 80.9418C154.98 77.7673 158.296 71.9913 159.459 63.7754C160.617 55.5914 159.091 48.8474 154.927 43.7291Z" fill="#F368A3"/>
        <path d="M154.927 43.7288C150.781 38.637 144.705 35.4944 136.871 34.3806C132.021 33.6937 127.59 33.9403 123.617 35.1098C125.784 35.0011 128.056 35.1125 130.429 35.4493C138.264 36.5605 144.337 39.7057 148.485 44.7976C152.649 49.9159 154.174 56.6599 153.014 64.8439C151.852 73.0598 148.535 78.8358 143.159 82.0103C141.607 82.9279 139.864 83.6572 137.941 84.1982C142.563 83.8799 146.464 82.7953 149.6 80.9442C154.977 77.7697 158.293 71.9937 159.456 63.7778C160.616 55.5912 159.09 48.8471 154.927 43.7288Z" fill="#DB4786"/>
        <path d="M181.61 90.7226L177.15 75.1395L173.415 75.6858L173.105 95.04L176.686 97.7742C176.686 97.7742 180.219 94.5282 180.704 94.2524L181.61 90.7226Z" fill="#267FF9"/>
        <path d="M176.844 75.1819L176.026 71.021L173.256 70.2095L171.131 72.1693L172.988 73.8692L174.715 75.4949L176.844 75.1819Z" fill="#FABD92"/>
    </g>
    <defs>
        <clipPath id="clip0">
            <path d="M0 8C0 3.58172 3.58172 0 8 0H219C223.418 0 227 3.58172 227 8V203C227 207.418 223.418 211 219 211H8.00001C3.58173 211 0 207.418 0 203V8Z" fill="white"/>
        </clipPath>
    </defs>
</svg>