<svg width="16" height="16" viewBox="0 0 16 16" fill="none" xmlns="http://www.w3.org/2000/svg">
    <path fill-rule="evenodd" clip-rule="evenodd" d="M16 8C16 12.4183 12.4183 16 8 16C3.58172 16 0 12.4183 0 8C0 3.58172 3.58172 0 8 0C12.4183 0 16 3.58172 16 8ZM7.99998 4C7.13073 4 6.38856 4.5551 6.11352 5.33325C5.92948 5.85396 5.35815 6.12689 4.83744 5.94284C4.31672 5.75879 4.0438 5.18747 4.22784 4.66675C4.77648 3.11451 6.25679 2 7.99998 2C10.2091 2 12 3.79086 12 6C12 7.86384 10.7252 9.42994 8.99998 9.87398V10C8.99998 10.5523 8.55226 11 7.99998 11C7.44769 11 6.99998 10.5523 6.99998 10V9C6.99998 8.44772 7.44769 8 7.99998 8C9.10455 8 9.99998 7.10457 9.99998 6C9.99998 4.89543 9.10455 4 7.99998 4ZM6.99978 13C6.99978 12.4477 7.4475 12 7.99978 12H8.00978C8.56207 12 9.00978 12.4477 9.00978 13C9.00978 13.5523 8.56207 14 8.00978 14H7.99978C7.4475 14 6.99978 13.5523 6.99978 13Z" fill="#2F486A" fill-opacity="0.35"/>
</svg>
