<svg width="131" height="35" viewBox="0 0 131 35" fill="none" xmlns="http://www.w3.org/2000/svg">
    <g clip-path="url(#clip0)">
        <path d="M35.0498 8.49139H25.1885V26.5086H35.0498V8.49139Z" fill="#6C6BBD"/>
        <path d="M25.8146 17.5057C25.8133 15.7708 26.2001 14.0583 26.9459 12.4979C27.6916 10.9374 28.7768 9.56986 30.1191 8.49871C28.4565 7.17032 26.4599 6.34428 24.3573 6.11498C22.2548 5.88569 20.1312 6.2624 18.2293 7.20205C16.3274 8.14171 14.7239 9.6064 13.602 11.4287C12.4802 13.2511 11.8853 15.3575 11.8853 17.5073C11.8853 19.6571 12.4802 21.7635 13.602 23.5859C14.7239 25.4082 16.3274 26.8729 18.2293 27.8125C20.1312 28.7522 22.2548 29.1289 24.3573 28.8996C26.4599 28.6703 28.4565 27.8443 30.1191 26.5159C28.7764 25.4444 27.691 24.0763 26.9452 22.5153C26.1994 20.9542 25.8128 19.2411 25.8146 17.5057Z" fill="#EB001B"/>
        <path d="M48.3547 17.5048C48.3547 19.6547 47.7596 21.7613 46.6375 23.5837C45.5155 25.4061 43.9117 26.8708 42.0096 27.8103C40.1074 28.7498 37.9836 29.1263 35.881 28.8966C33.7783 28.667 31.7816 27.8406 30.1191 26.5118C31.461 25.4397 32.5458 24.0717 33.2918 22.5112C34.0377 20.9507 34.4253 19.2382 34.4253 17.5032C34.4253 15.7681 34.0377 14.0557 33.2918 12.4952C32.5458 10.9346 31.461 9.56671 30.1191 8.4946C31.7818 7.16563 33.7788 6.33915 35.8818 6.10965C37.9847 5.88014 40.1087 6.25688 42.011 7.19679C43.9133 8.1367 45.517 9.60184 46.6388 11.4247C47.7606 13.2475 48.3552 15.3545 48.3547 17.5048Z" fill="#0099DF"/>
        <path d="M108.254 13.605C108.588 13.605 109.068 13.6689 109.435 13.8131L108.924 15.3752C108.574 15.2311 108.223 15.1836 107.888 15.1836C106.804 15.1836 106.262 15.8844 106.262 17.1437V21.4178H104.603V13.7966H106.245V14.7219C106.676 14.0521 107.298 13.605 108.254 13.605ZM102.126 15.3114H99.4161V18.7551C99.4161 19.5198 99.6862 20.0308 100.517 20.0308C100.947 20.0308 101.489 19.8866 101.982 19.6001L102.46 21.0181C101.935 21.3849 101.106 21.6094 100.389 21.6094C98.4269 21.6094 97.7426 20.5564 97.7426 18.7862V15.3114H96.195V13.7966H97.7426V11.4844H99.4161V13.7966H102.126V15.3114ZM80.9036 16.9374C81.0806 15.837 81.7486 15.0869 82.9293 15.0869C83.9969 15.0869 84.6831 15.7567 84.8583 16.9374H80.9036ZM86.5811 17.6072C86.5647 15.2311 85.0974 13.605 82.9603 13.605C80.7284 13.605 79.1662 15.2311 79.1662 17.6072C79.1662 20.029 80.7923 21.6076 83.0735 21.6076C84.2214 21.6076 85.2726 21.3211 86.1978 20.54L85.3839 19.3118C84.747 19.8228 83.9331 20.1093 83.1684 20.1093C82.1008 20.1093 81.1281 19.6147 80.889 18.2441H86.5482C86.5647 18.0361 86.5811 17.8299 86.5811 17.6072ZM93.8663 15.7421C93.4046 15.4537 92.4648 15.0869 91.4921 15.0869C90.5832 15.0869 90.0412 15.4227 90.0412 15.9811C90.0412 16.4903 90.6143 16.6345 91.3315 16.7294L92.1126 16.8407C93.7715 17.0816 94.7752 17.7824 94.7752 19.122C94.7752 20.5728 93.4995 21.6094 91.3004 21.6094C90.0558 21.6094 88.9079 21.29 87.9991 20.6203L88.7802 19.3282C89.3386 19.7589 90.169 20.1257 91.3169 20.1257C92.4483 20.1257 93.0542 19.7917 93.0542 19.2004C93.0542 18.7716 92.6235 18.5307 91.7147 18.4047L90.9336 18.2934C89.2273 18.0525 88.302 17.2878 88.302 16.045C88.302 14.5303 89.5467 13.605 91.4756 13.605C92.6874 13.605 93.7879 13.8769 94.5836 14.4025L93.8663 15.7421ZM114.315 15.18C113.974 15.18 113.658 15.2402 113.364 15.3588C113.072 15.4793 112.819 15.6472 112.605 15.8625C112.392 16.0779 112.224 16.337 112.101 16.6381C111.979 16.9393 111.919 17.2714 111.919 17.6328C111.919 17.9959 111.979 18.3263 112.101 18.6274C112.224 18.9285 112.392 19.1877 112.605 19.403C112.819 19.6184 113.072 19.7863 113.364 19.9067C113.658 20.0272 113.974 20.0856 114.315 20.0856C114.656 20.0856 114.974 20.0272 115.266 19.9067C115.56 19.7863 115.815 19.6184 116.029 19.403C116.246 19.1877 116.414 18.9285 116.538 18.6274C116.66 18.3263 116.72 17.9959 116.72 17.6328C116.72 17.2714 116.66 16.9393 116.538 16.6381C116.414 16.337 116.246 16.0779 116.029 15.8625C115.815 15.6472 115.56 15.4793 115.266 15.3588C114.974 15.2402 114.656 15.18 114.315 15.18ZM114.315 13.605C114.906 13.605 115.454 13.7072 115.958 13.9134C116.461 14.1178 116.897 14.4007 117.264 14.7602C117.633 15.1197 117.919 15.545 118.127 16.0341C118.336 16.525 118.44 17.0579 118.44 17.6328C118.44 18.2076 118.336 18.7405 118.127 19.2315C117.919 19.7206 117.633 20.1476 117.264 20.5071C116.897 20.8667 116.461 21.1477 115.958 21.3539C115.454 21.5583 114.906 21.6605 114.315 21.6605C113.724 21.6605 113.176 21.5583 112.673 21.3539C112.169 21.1477 111.736 20.8667 111.371 20.5071C111.006 20.1476 110.72 19.7206 110.512 19.2315C110.304 18.7405 110.2 18.2076 110.2 17.6328C110.2 17.0579 110.304 16.525 110.512 16.0341C110.72 15.545 111.006 15.1197 111.371 14.7602C111.736 14.4007 112.169 14.1178 112.673 13.9134C113.176 13.7072 113.724 13.605 114.315 13.605ZM71.2167 17.6072C71.2167 16.2677 72.0945 15.1672 73.5289 15.1672C74.8995 15.1672 75.8247 16.2202 75.8247 17.6072C75.8247 18.9942 74.8995 20.0454 73.5289 20.0454C72.0945 20.0454 71.2167 18.9468 71.2167 17.6072ZM77.3869 17.6072V13.7966H75.7298V14.7219C75.2024 14.0357 74.4067 13.605 73.3227 13.605C71.1857 13.605 69.5122 15.2785 69.5122 17.6072C69.5122 19.9341 71.1857 21.6094 73.3227 21.6094C74.4067 21.6094 75.2024 21.1787 75.7298 20.4925V21.4178H77.3869V17.6072ZM68.0449 21.4178V16.6345C68.0449 14.8332 66.897 13.6214 65.0483 13.605C64.0756 13.5886 63.07 13.8915 62.3692 14.961C61.8437 14.116 61.0133 13.605 59.849 13.605C59.0369 13.605 58.2393 13.8441 57.617 14.7365V13.7966H55.96V21.4178H57.6335V17.1929C57.6335 15.8698 58.3671 15.1672 59.4986 15.1672C60.599 15.1672 61.1575 15.8844 61.1575 17.1765V21.4178H62.831V17.1929C62.831 15.8698 63.5974 15.1672 64.6961 15.1672C65.8294 15.1672 66.3714 15.8844 66.3714 17.1765V21.4178H68.0449Z" fill="#231F20"/>
    </g>
    <defs>
        <clipPath id="clip0">
            <rect width="130.392" height="35" fill="white"/>
        </clipPath>
    </defs>
</svg>