<svg width="93" height="35" viewBox="0 0 93 35" fill="none" xmlns="http://www.w3.org/2000/svg">
    <g opacity="0.5">
        <path fill-rule="evenodd" clip-rule="evenodd" d="M31.8885 8.20313V8.21101C31.8807 8.21101 29.4305 8.20313 28.7771 10.5752C28.1782 12.7503 26.4903 18.7554 26.4436 18.9209H25.9769C25.9769 18.9209 24.2501 12.7818 23.6434 10.5673C22.99 8.19524 20.5321 8.20313 20.5321 8.20313H14.9316V26.25H20.5321V15.5322H20.7654H20.9988L24.2657 26.25H28.1549L31.4218 15.5401H31.8885V26.25H37.4889V8.20313H31.8885Z" fill="#4DB45E"/>
        <path fill-rule="evenodd" clip-rule="evenodd" d="M52.3458 8.20312C52.3458 8.20312 50.7046 8.35286 49.9345 10.0945L45.9675 18.9209H45.5008V8.20312H39.9004V26.25H45.1897C45.1897 26.25 46.9087 26.0924 47.6788 24.3586L51.568 15.5322H52.0347V26.25H57.6351V8.20312H52.3458Z" fill="#4DB45E"/>
        <path fill-rule="evenodd" clip-rule="evenodd" d="M60.124 16.3991V26.25H65.7244V20.4971H71.7916C74.4362 20.4971 76.6764 18.787 77.5087 16.3991H60.124Z" fill="#4DB45E"/>
        <path fill-rule="evenodd" clip-rule="evenodd" d="M71.7915 8.20312H59.3384C59.9606 11.6391 62.5042 14.3974 65.7944 15.2958C66.5411 15.5007 67.3268 15.611 68.1357 15.611H77.7342C77.8198 15.2012 77.8587 14.7835 77.8587 14.3501C77.8587 10.9535 75.144 8.20312 71.7915 8.20312Z" fill="url(#paint0_linear)"/>
    </g>
    <defs>
        <linearGradient id="paint0_linear" x1="59.3399" y1="11.9071" x2="77.8587" y2="11.9071" gradientUnits="userSpaceOnUse">
            <stop offset="0.3" stop-color="#00B4E6"/>
            <stop offset="1" stop-color="#088CCB"/>
        </linearGradient>
    </defs>
</svg>