<svg width="28" height="28" viewBox="0 0 28 28" fill="none" xmlns="http://www.w3.org/2000/svg">
    <g clip-path="url(#clip0)">
        <path d="M21.8133 15.9668C21.5576 11.9069 18.1261 8.57648 13.9447 8.57648C9.76336 8.57648 6.33185 11.9069 6.07617 15.9668H21.8133ZM13.1116 9.94619C13.526 9.89237 13.9042 10.1846 13.9578 10.5981C14.0114 11.0119 13.7195 11.3908 13.3058 11.4443C11.7019 11.6521 10.2287 12.6589 9.46113 14.0719C9.32432 14.3238 9.06477 14.4668 8.79681 14.4668C8.67501 14.4668 8.55142 14.4372 8.43689 14.3749C8.07036 14.1759 7.93469 13.7172 8.13381 13.3506C9.12841 11.5197 11.0357 10.2151 13.1116 9.94619Z" fill="#267FF9"/>
        <path d="M22.3639 21.0808C22.3639 20.7424 22.1201 20.4989 21.7817 20.4989H6.20277C5.86438 20.4989 5.55762 20.7424 5.55762 21.0808V22.0096H22.3639V21.0808Z" fill="#267FF9"/>
        <path d="M21.7816 18.9882H20.0979V17.4775H22.5842C23.0013 17.4775 23.3081 17.1676 23.3081 16.7505V16.4887C23.3081 11.5789 19.5314 7.53732 14.7161 7.12878V6.1474C15.1881 6.1474 15.4872 5.8092 15.4872 5.39206C15.4872 4.97492 15.1647 4.63672 14.7476 4.63672H13.2369C12.8198 4.63672 12.4658 4.97492 12.4658 5.39206C12.4658 5.8092 12.8277 6.1474 13.2054 6.1474V7.12066C8.39008 7.48397 4.51896 11.5467 4.51896 16.4887V16.7505C4.51896 17.1676 4.88861 17.4775 5.30574 17.4775H7.63474V18.9882H6.20271C5.03137 18.9882 4.04688 19.9094 4.04688 21.0808V22.7331C4.04688 23.1502 4.41652 23.5202 4.83366 23.5202H23.1507C23.5678 23.5202 23.8746 23.1502 23.8746 22.7331V21.0808C23.8746 19.9094 22.953 18.9882 21.7816 18.9882ZM5.55756 21.0808C5.55756 20.7424 5.86432 20.4989 6.20271 20.4989H21.7816C22.12 20.4989 22.3639 20.7424 22.3639 21.0808V22.0096H5.55756V21.0808ZM13.945 8.57648C18.1263 8.57648 21.5578 11.9069 21.8135 15.9668H6.07638C6.33206 11.9069 9.76358 8.57648 13.945 8.57648ZM18.5872 17.4775V18.9882H9.14542V17.4775H18.5872Z" fill="#2F486A"/>
        <path d="M8.43687 14.375C8.55149 14.4372 8.67499 14.4668 8.79679 14.4668C9.06475 14.4668 9.3243 14.3238 9.46111 14.0719C10.2287 12.6589 11.7018 11.6522 13.3058 11.4443C13.7195 11.3908 14.0115 11.0119 13.9578 10.5982C13.9042 10.1846 13.526 9.89231 13.1116 9.94623C11.0358 10.2152 9.12838 11.5198 8.13369 13.3507C7.93466 13.7173 8.07034 14.1759 8.43687 14.375Z" fill="#2F486A"/>
        <path d="M5.80074 6.9143C5.95011 7.09237 6.16415 7.18405 6.37971 7.18405C6.55098 7.18405 6.72339 7.12608 6.86492 7.0073C7.18452 6.73916 7.22616 6.26272 6.95792 5.94322L5.98684 4.78594C5.71869 4.46634 5.24226 4.4247 4.92266 4.69294C4.60306 4.96108 4.56142 5.43752 4.82966 5.75712L5.80074 6.9143Z" fill="#2F486A"/>
        <path d="M4.32998 10.0455C4.53855 9.6843 4.41468 9.22222 4.05343 9.01365L2.745 8.25831C2.38375 8.04984 1.92177 8.17353 1.71311 8.53486C1.50454 8.8961 1.62841 9.35818 1.98966 9.56675L3.29809 10.3221C3.41706 10.3907 3.54688 10.4233 3.67501 10.4233C3.93607 10.4233 4.18996 10.2879 4.32998 10.0455Z" fill="#2F486A"/>
        <path d="M2.37449 12.8924L0.886655 12.63C0.4766 12.5582 0.0840117 12.8319 0.0115934 13.2428C-0.0608248 13.6536 0.213553 14.0454 0.624363 14.1179L2.1122 14.3802C2.15657 14.3879 2.20066 14.3917 2.24419 14.3917C2.60383 14.3917 2.92258 14.1339 2.98716 13.7674C3.05968 13.3567 2.78539 12.9648 2.37449 12.8924Z" fill="#2F486A"/>
        <path d="M27.9886 13.1554C27.9161 12.7445 27.5249 12.4714 27.1136 12.5426L25.6258 12.8048C25.2149 12.8773 24.9406 13.2689 25.0131 13.6799C25.0777 14.0464 25.3964 14.3041 25.756 14.3041C25.7996 14.3041 25.8437 14.3004 25.888 14.2926L27.3758 14.0304C27.7868 13.9579 28.0611 13.5662 27.9886 13.1554Z" fill="#2F486A"/>
        <path d="M26.2596 8.469C26.0511 8.10766 25.5889 7.98378 25.2278 8.19235L23.9194 8.9476C23.5581 9.15617 23.4342 9.61815 23.6428 9.9794C23.7826 10.2218 24.0366 10.3573 24.2977 10.3573C24.4258 10.3573 24.5556 10.3246 24.6745 10.256L25.9829 9.50079C26.3443 9.29222 26.4682 8.83024 26.2596 8.469Z" fill="#2F486A"/>
        <path d="M21.0901 6.97079C21.2316 7.08957 21.4039 7.14754 21.5753 7.14754C21.7908 7.14754 22.0049 7.05576 22.1543 6.87779L23.1255 5.72061C23.3936 5.4011 23.352 4.92467 23.0325 4.65652C22.7129 4.38838 22.2364 4.42992 21.9683 4.74952L20.9971 5.9067C20.729 6.22612 20.7705 6.70255 21.0901 6.97079Z" fill="#2F486A"/>
    </g>
    <defs>
        <clipPath id="clip0">
            <rect width="28" height="28" fill="white"/>
        </clipPath>
    </defs>
</svg>