<svg width="91" height="40" viewBox="0 0 91 40" fill="none" xmlns="http://www.w3.org/2000/svg">
    <rect x="0.5" y="0.5" width="90" height="39" rx="3.5" fill="#FAFBFC"/>
    <g clip-path="url(#clip0)">
        <path d="M15.2634 18.7942C14.7517 19.3059 14.7517 20.1386 15.2634 20.6553C15.7751 21.167 16.6078 21.167 17.1245 20.6553C20.6661 17.1137 26.43 17.1137 29.9716 20.6553C30.2274 20.9111 30.5635 21.0416 30.8996 21.0416C31.2358 21.0416 31.5719 20.9111 31.8277 20.6553C32.3394 20.1436 32.3394 19.3109 31.8277 18.7942C27.2627 14.2242 19.8284 14.2242 15.2634 18.7942Z" fill="#2F486A" fill-opacity="0.75"/>
        <path d="M18.8152 22.3454C18.3035 22.8571 18.3035 23.6898 18.8152 24.2065C19.3268 24.7182 20.1596 24.7182 20.6763 24.2065C22.2564 22.6213 24.8349 22.6213 26.4151 24.2065C26.6709 24.4624 27.007 24.5928 27.3431 24.5928C27.6792 24.5928 28.0153 24.4624 28.2711 24.2065C28.7828 23.6949 28.7828 22.8621 28.2711 22.3505C25.6676 19.7369 21.4237 19.7369 18.8152 22.3454Z" fill="#2F486A" fill-opacity="0.75"/>
        <path d="M23.5457 28.8218C24.5126 28.8218 25.2964 28.038 25.2964 27.0711C25.2964 26.1041 24.5126 25.3203 23.5457 25.3203C22.5788 25.3203 21.7949 26.1041 21.7949 27.0711C21.7949 28.038 22.5788 28.8218 23.5457 28.8218Z" fill="#2F486A" fill-opacity="0.75"/>
        <path d="M35.4346 15.1822C28.8782 8.63069 18.2132 8.63069 11.6567 15.1822C11.145 15.6938 11.145 16.5266 11.6567 17.0433C12.1684 17.5549 13.0011 17.5549 13.5178 17.0433C19.0459 11.5101 28.0454 11.5101 33.5786 17.0433C33.8344 17.2991 34.1705 17.4295 34.5066 17.4295C34.8427 17.4295 35.1788 17.2991 35.4346 17.0433C35.9463 16.5316 35.9463 15.6989 35.4346 15.1822Z" fill="#2F486A" fill-opacity="0.75"/>
    </g>
    <rect x="0.5" y="0.5" width="90" height="39" rx="3.5" stroke="#DCDFE2"/>
    <defs>
        <clipPath id="clip0">
            <rect width="24.5455" height="24.5455" fill="white" transform="translate(11.2729 7.27246)"/>
        </clipPath>
    </defs>
</svg>
