<svg width="32" height="32" viewBox="0 0 32 32" fill="none" xmlns="http://www.w3.org/2000/svg">
    <rect x="0.5" y="0.5" width="31" height="31" rx="3.5" fill="#FAFBFC"/>
    <g clip-path="url(#clip0)">
        <path d="M9.92595 15.449C9.55072 15.8243 9.55072 16.4349 9.92595 16.8139C10.3012 17.1891 10.9119 17.1891 11.2908 16.8139C13.8879 14.2167 18.1148 14.2167 20.712 16.8139C20.8996 17.0015 21.1461 17.0971 21.3925 17.0971C21.639 17.0971 21.8855 17.0015 22.0731 16.8139C22.4483 16.4386 22.4483 15.828 22.0731 15.449C18.7255 12.0977 13.2736 12.0977 9.92595 15.449Z" fill="#2F486A" fill-opacity="0.75"/>
        <path d="M12.5314 18.0536C12.1562 18.4288 12.1562 19.0395 12.5314 19.4184C12.9067 19.7936 13.5173 19.7936 13.8962 19.4184C15.055 18.2559 16.9459 18.2559 18.1047 19.4184C18.2923 19.606 18.5388 19.7016 18.7853 19.7016C19.0317 19.7016 19.2782 19.606 19.4658 19.4184C19.841 19.0431 19.841 18.4325 19.4658 18.0572C17.5566 16.1406 14.4444 16.1406 12.5314 18.0536Z" fill="#2F486A" fill-opacity="0.75"/>
        <path d="M15.9997 22.8028C16.7088 22.8028 17.2836 22.228 17.2836 21.5189C17.2836 20.8099 16.7088 20.2351 15.9997 20.2351C15.2906 20.2351 14.7158 20.8099 14.7158 21.5189C14.7158 22.228 15.2906 22.8028 15.9997 22.8028Z" fill="#2F486A" fill-opacity="0.75"/>
        <path d="M24.7186 12.8004C19.9105 7.99596 12.0895 7.99596 7.28142 12.8004C6.90619 13.1756 6.90619 13.7863 7.28142 14.1652C7.65665 14.5404 8.26732 14.5404 8.64623 14.1652C12.7002 10.1076 19.2998 10.1076 23.3574 14.1652C23.5451 14.3528 23.7915 14.4484 24.038 14.4484C24.2845 14.4484 24.531 14.3528 24.7186 14.1652C25.0938 13.79 25.0938 13.1793 24.7186 12.8004Z" fill="#2F486A" fill-opacity="0.75"/>
    </g>
    <rect x="0.5" y="0.5" width="31" height="31" rx="3.5" stroke="#DCDFE2"/>
    <defs>
        <clipPath id="clip0">
            <rect width="18" height="18" fill="white" transform="translate(7 7)"/>
        </clipPath>
    </defs>
</svg>