<svg width="24" height="24" viewBox="0 0 24 24" fill="none" xmlns="http://www.w3.org/2000/svg">
    <path opacity="0.5" fill-rule="evenodd" clip-rule="evenodd" d="M14 4.5C14 5.88071 12.8807 7 11.5 7C10.1193 7 8.99996 5.88071 8.99996 4.5C8.99996 3.11929 10.1193 2 11.5 2C12.8807 2 14 3.11929 14 4.5ZM14 13.2356L15.1058 15.4472C15.3528 15.9412 15.9535 16.1414 16.4474 15.8944C16.9414 15.6474 17.1416 15.0468 16.8946 14.5528L14.5655 9.89443C13.985 8.7334 12.7983 8 11.5002 8C10.2021 8 9.01549 8.7334 8.43497 9.89443L6.10579 14.5528C5.8588 15.0468 6.05903 15.6474 6.55301 15.8944C7.04698 16.1414 7.64766 15.9412 7.89465 15.4472L8.99996 13.2366V14.9584L8.50342 20.917C8.45755 21.4673 8.86654 21.9507 9.41692 21.9965C9.96729 22.0424 10.4506 21.6334 10.4965 21.083L10.8368 17H12.1632L12.5034 21.083C12.5493 21.6334 13.0326 22.0424 13.583 21.9965C14.1334 21.9507 14.5424 21.4673 14.4965 20.917L14 14.9584V13.2356Z" fill="#2F486A" fill-opacity="0.75"/>
</svg>