<svg width="26" height="24" viewBox="0 0 26 24" fill="none" xmlns="http://www.w3.org/2000/svg">
    <path d="M9.9857 2.33288L9.8489 2.35512L9.6497 1.13712C10.1021 1.06176 10.5653 1.01606 11.0237 1L11.0621 2.23529C10.9301 2.23776 10.7981 2.24518 10.6685 2.25629H10.6469L10.6409 2.25753H10.6385L10.6205 2.25876H10.6181L10.6121 2.26H10.6001L10.5977 2.26124H10.5857L10.5785 2.26247H10.5749L10.5701 2.26371H10.5605L10.5557 2.26494H10.5461L10.5413 2.26618H10.5305L10.5281 2.26741H10.5185L10.5125 2.26865H10.5113L10.5029 2.26988H10.4945L10.4921 2.27112L10.4729 2.27235L10.4645 2.27359L10.4537 2.27482H10.4441L10.4261 2.27729C10.3279 2.28672 10.2299 2.29826 10.1321 2.31188L10.1033 2.31559C10.0974 2.317 10.0914 2.31782 10.0853 2.31806L10.0769 2.31929H10.0745L10.0661 2.32176H10.0649L10.0589 2.323H10.0553L10.0493 2.32424H10.0469L10.0397 2.32547H10.0361L10.0301 2.32671H10.0265L10.0229 2.32794L10.0133 2.32918L10.0061 2.33041C9.99939 2.3319 9.99256 2.33273 9.9857 2.33288ZM6.9605 3.36435C6.78867 3.45977 6.61979 3.5607 6.4541 3.667L5.8013 2.62565C6.19021 2.37504 6.59468 2.15097 7.0121 1.95488L7.5233 3.07653C7.3985 3.13459 7.2725 3.19635 7.1489 3.26182L7.1405 3.26553V3.26676L7.1237 3.27541C7.12113 3.27626 7.1187 3.27751 7.1165 3.27912L7.1141 3.28035L7.1081 3.28406L7.1057 3.28529C7.10404 3.28681 7.10192 3.28768 7.0997 3.28776L7.0973 3.289L7.0913 3.29271H7.0901L7.0829 3.29765L7.0805 3.29888C7.07828 3.29897 7.07616 3.29984 7.0745 3.30135L7.0709 3.30259L7.0661 3.30506L7.0613 3.30753L7.0577 3.31124L7.0541 3.31247L7.0505 3.31371L7.0469 3.31618L7.0433 3.31865L7.0361 3.32235L7.0337 3.32359L7.0289 3.32606L7.0265 3.32729L7.0217 3.32976L7.0205 3.331L7.0109 3.33594L7.0085 3.33718L7.0037 3.33965L7.0013 3.34088C6.99532 3.34345 6.98968 3.34677 6.9845 3.35076C6.9823 3.35237 6.97987 3.35362 6.9773 3.35447L6.9593 3.36435H6.9605ZM4.2281 5.70647C3.83955 6.1956 3.50096 6.72463 3.2177 7.28518L2.1317 6.72312C2.55293 5.89013 3.08129 5.11937 3.7025 4.43165L4.6037 5.263L4.5125 5.36553L4.5005 5.38035H4.4993C4.49729 5.3832 4.49487 5.3857 4.4921 5.38776L4.4801 5.40259L4.4741 5.40876V5.41C4.4704 5.4148 4.46639 5.41934 4.4621 5.42359L4.4597 5.42482C4.4584 5.42711 4.45678 5.42919 4.4549 5.431V5.43224C4.45256 5.43439 4.45054 5.43689 4.4489 5.43965L4.4417 5.44706C4.43957 5.44805 4.43786 5.44981 4.4369 5.452L4.4345 5.45447L4.4309 5.45941L4.4297 5.46065L4.4237 5.46806L4.4225 5.46929C4.4201 5.47176 4.4201 5.473 4.4165 5.47424V5.47671L4.4105 5.48165V5.48288C4.40805 5.48492 4.40601 5.48744 4.4045 5.49029L4.4021 5.49153C4.4012 5.49339 4.39998 5.49506 4.3985 5.49647C4.3985 5.49771 4.3985 5.49894 4.3961 5.49894L4.3925 5.50388L4.3901 5.50635L4.3853 5.51253L4.3829 5.515L4.3805 5.51871L4.3781 5.52241L4.3745 5.52488L4.3721 5.52859L4.3673 5.53476L4.3649 5.53724L4.3613 5.54094L4.3589 5.54465L4.3553 5.54835L4.3541 5.55082L4.3505 5.55453L4.3457 5.56071L4.3433 5.56318L4.3397 5.56688L4.3373 5.57059L4.3337 5.57429C4.3337 5.57553 4.3337 5.57676 4.3313 5.57676C4.33 5.57905 4.32838 5.58113 4.3265 5.58294L4.3241 5.58541C4.3232 5.58727 4.32198 5.58894 4.3205 5.59035V5.59282L4.3157 5.59653V5.599L4.3073 5.60641L4.3049 5.60888L4.3025 5.61259L4.3013 5.61506L4.2881 5.62988V5.63112L4.2833 5.63606L4.2821 5.63729L4.2701 5.65335L4.2641 5.65829L4.2461 5.68176L4.2281 5.70524V5.70647ZM2.2205 11.3518C2.2169 11.5877 2.2217 11.8236 2.2361 12.0596L1.0193 12.1337C0.96312 11.2023 1.02973 10.2673 1.2173 9.35429L2.4113 9.60506C2.3086 10.1053 2.24678 10.6136 2.2265 11.1245V11.1541L2.2241 11.1739V11.1936L2.2229 11.2023V11.2332L2.2217 11.2406V11.2851L2.2205 11.2937V11.3518ZM25.0001 12.3202L24.1385 13.1936L21.6701 10.6958C21.7903 12.1786 21.598 13.6707 21.1063 15.0699C20.6146 16.4691 19.8352 17.7425 18.8213 18.8031C14.8517 22.9623 8.2769 23.0784 4.1657 19.0588C2.99175 17.8892 2.09643 16.4559 1.5497 14.8711L2.7029 14.4758C2.7437 14.5932 2.9297 15.0959 3.1673 15.6061C3.3329 15.9594 3.5369 16.2979 3.7553 16.6289C4.1153 17.1774 4.5269 17.6962 5.0129 18.1731C8.6465 21.7233 14.4353 21.622 17.9441 17.9445C18.85 16.9984 19.5438 15.8598 19.9771 14.6085C20.4103 13.3571 20.5725 12.0234 20.4521 10.7008L17.9897 13.1924L17.1281 12.319L21.0641 8.33394L25.0001 12.3202ZM14.9621 13.6704C14.9621 14.4054 14.6897 15.0132 14.1437 15.4912C13.5989 15.9705 12.8369 16.2719 11.8601 16.3967V18.2793H10.8257V16.4684C10.243 16.4698 9.66106 16.4227 9.0857 16.3275C8.5241 16.2324 8.0657 16.1015 7.7057 15.9347V14.6685C8.1509 14.8674 8.6621 15.0317 9.2417 15.1589C9.8213 15.2862 10.3493 15.3504 10.8257 15.3504V11.7804C9.7301 11.4284 8.9609 11.0195 8.5205 10.5538C8.0801 10.0893 7.8605 9.48771 7.8605 8.75271C7.8605 8.04365 8.1305 7.46182 8.6717 7.00724C9.2153 6.55265 9.9317 6.27841 10.8257 6.17959V4.70465H11.8601V6.16353C12.836 6.18873 13.7999 6.39243 14.7065 6.76512L14.2889 7.82747C13.5118 7.51307 12.6929 7.3215 11.8601 7.25923V10.7811C12.7001 11.0516 13.3265 11.3159 13.7441 11.5716C14.1605 11.8298 14.4677 12.1251 14.6657 12.4574C14.8637 12.7896 14.9621 13.1936 14.9621 13.6704ZM13.5989 13.7754C13.5989 13.3863 13.4801 13.0713 13.2425 12.8292C13.0037 12.5895 12.5441 12.3499 11.8601 12.1127V15.2676C13.0193 15.1071 13.6001 14.6092 13.6001 13.7754H13.5989ZM9.2141 8.73541C9.2141 9.14676 9.3341 9.47659 9.5753 9.72612C9.8153 9.97565 10.2317 10.2104 10.8257 10.4327V7.29135C10.2965 7.37782 9.8957 7.54706 9.6233 7.79906C9.49241 7.91456 9.38788 8.05836 9.31715 8.22021C9.24642 8.38205 9.21123 8.55797 9.2141 8.73541Z" fill="#2F486A" stroke="#2F486A" stroke-width="0.8" stroke-linejoin="bevel"/>
</svg>