<svg width="9" height="17" viewBox="0 0 9 17" fill="none" xmlns="http://www.w3.org/2000/svg">
    <path d="M4.42159 4.78088C5.74154 4.78088 6.8121 3.71053 6.8121 2.39037C6.8121 1.07021 5.74154 0 4.42159 0C3.10129 0 2.03101 1.07021 2.03101 2.39037C2.03101 3.71053 3.10129 4.78088 4.42159 4.78088Z" fill="#2F486A" fill-opacity="0.75"/>
    <path d="M8.46496 10.9653C8.12415 6.43451 5.76641 5.4202 5.13892 5.22956C4.91579 5.14492 4.6744 5.09814 4.42183 5.09814C4.16948 5.09814 3.92823 5.14485 3.70546 5.22935C3.07889 5.41921 0.719518 6.43238 0.378421 10.9653C0.346788 11.383 0.660002 11.7471 1.07767 11.7785C1.09706 11.78 1.11624 11.7808 1.13542 11.7808C1.5286 11.7808 1.86113 11.4776 1.89113 11.0792C1.96884 10.0455 2.15941 9.25181 2.3991 8.64301V10.333C2.3991 10.4918 2.41785 10.6462 2.4526 10.7945V15.901C2.4526 16.3897 2.84868 16.7858 3.3374 16.7858C3.82619 16.7858 4.22248 16.3897 4.22248 15.901V12.3458C4.28801 12.3525 4.35453 12.3558 4.42169 12.3558C4.48885 12.3558 4.5553 12.3525 4.62076 12.3459V15.901C4.62076 16.3897 5.01705 16.7858 5.50577 16.7858C5.99428 16.7858 6.39057 16.3897 6.39057 15.901V10.7953C6.42539 10.6468 6.44421 10.4922 6.44421 10.333V8.65065C6.68369 9.25868 6.87462 10.0501 6.95204 11.0792C6.98197 11.4776 7.31457 11.7808 7.70776 11.7808C7.72665 11.7808 7.74597 11.78 7.76529 11.7785C8.1831 11.7471 8.49638 11.383 8.46496 10.9653Z" fill="#2F486A" fill-opacity="0.75"/>
</svg>
