<svg width="24" height="24" viewBox="0 0 24 24" fill="none" xmlns="http://www.w3.org/2000/svg">
    <path opacity="0.5" fill-rule="evenodd" clip-rule="evenodd" d="M13.9999 6C13.9999 7.10457 13.1045 8 11.9999 8C10.8953 8 9.99989 7.10457 9.99989 6C9.99989 4.89543 10.8953 4 11.9999 4C13.1045 4 13.9999 4.89543 13.9999 6ZM10.6072 9.42292C11.0069 9.1551 11.4868 9 11.9999 9C12.5129 9 12.9929 9.1551 13.3926 9.42293C13.4197 9.39584 13.446 9.36789 13.4716 9.33909L15.2525 7.33564C15.6194 6.92285 16.2515 6.88567 16.6643 7.25259C17.077 7.61951 17.1142 8.25158 16.7473 8.66436L14.9664 10.6678C14.8154 10.8377 14.6513 10.993 14.4762 11.1328C14.4814 11.1674 14.4858 11.2022 14.4896 11.2372L14.8993 15.0616C14.9359 15.403 14.7653 15.7147 14.4935 15.8787L14.9864 18.8356C15.0771 19.3804 14.7091 19.8956 14.1644 19.9864C13.6196 20.0772 13.1044 19.7092 13.0136 19.1644L12.4862 16H11.5138L10.9864 19.1644C10.8956 19.7092 10.3803 20.0772 9.83556 19.9864C9.29079 19.8956 8.92277 19.3804 9.01356 18.8356L9.50636 15.8788C9.23447 15.7148 9.06383 15.4031 9.10042 15.0616L9.51018 11.2372C9.51393 11.2022 9.5184 11.1674 9.52356 11.1328C9.34849 10.993 9.18435 10.8377 9.03333 10.6678L7.25248 8.66436C6.88556 8.25158 6.92274 7.61951 7.33552 7.25259C7.74831 6.88567 8.38038 6.92285 8.7473 7.33564L10.5281 9.33909C10.5537 9.36789 10.5801 9.39583 10.6072 9.42292Z" fill="#2F486A" fill-opacity="0.75"/>
</svg>