<svg width="24" height="24" viewBox="0 0 24 24" fill="none" xmlns="http://www.w3.org/2000/svg">
    <path d="M12 22C17.5228 22 22 17.5228 22 12C22 6.47715 17.5228 2 12 2C6.47715 2 2 6.47715 2 12C2 17.5228 6.47715 22 12 22Z" fill="#FFCC4D"/>
    <path d="M7.84168 15.1228C7.86668 15.2222 8.49057 17.5555 12 17.5555C15.51 17.5555 16.1333 15.2222 16.1583 15.1228C16.1889 15.0022 16.1345 14.8772 16.0267 14.815C15.9183 14.7533 15.7828 14.7717 15.6933 14.8578C15.6828 14.8683 14.6078 15.8889 12 15.8889C9.39223 15.8889 8.31668 14.8683 8.30668 14.8583C8.25334 14.8055 8.18223 14.7778 8.11112 14.7778C8.06445 14.7778 8.01723 14.7894 7.97445 14.8133C7.86557 14.8755 7.81112 15.0017 7.84168 15.1228Z" fill="#664500"/>
    <path d="M8.66672 11.4444C9.43378 11.4444 10.0556 10.5739 10.0556 9.49999C10.0556 8.4261 9.43378 7.55554 8.66672 7.55554C7.89966 7.55554 7.27783 8.4261 7.27783 9.49999C7.27783 10.5739 7.89966 11.4444 8.66672 11.4444Z" fill="#664500"/>
    <path d="M15.3333 11.4444C16.1004 11.4444 16.7222 10.5739 16.7222 9.49999C16.7222 8.4261 16.1004 7.55554 15.3333 7.55554C14.5663 7.55554 13.9445 8.4261 13.9445 9.49999C13.9445 10.5739 14.5663 11.4444 15.3333 11.4444Z" fill="#664500"/>
</svg>