<svg width="28" height="28" viewBox="0 0 28 28" fill="none" xmlns="http://www.w3.org/2000/svg">
    <g clip-path="url(#clip0)">
        <path d="M21.8133 15.967C21.5576 11.907 18.1261 8.57666 13.9447 8.57666C9.76336 8.57666 6.33185 11.907 6.07617 15.967H21.8133ZM13.1116 9.94637C13.526 9.89256 13.9042 10.1848 13.9578 10.5983C14.0114 11.0121 13.7195 11.391 13.3058 11.4445C11.7019 11.6523 10.2287 12.6591 9.46113 14.072C9.32432 14.3239 9.06477 14.467 8.79681 14.467C8.67501 14.467 8.55142 14.4373 8.43689 14.3751C8.07036 14.1761 7.93469 13.7174 8.13381 13.3508C9.12841 11.5199 11.0357 10.2153 13.1116 9.94637Z" fill="#267FF9"/>
        <path d="M22.3639 21.0809C22.3639 20.7425 22.1201 20.499 21.7817 20.499H6.20277C5.86438 20.499 5.55762 20.7425 5.55762 21.0809V22.0097H22.3639V21.0809Z" fill="#267FF9"/>
        <path d="M21.7816 18.9887H20.0979V17.478H22.5842C23.0013 17.478 23.3081 17.1681 23.3081 16.751V16.4892C23.3081 11.5794 19.5314 7.53781 14.7161 7.12926V6.14789C15.1881 6.14789 15.4872 5.80968 15.4872 5.39255C15.4872 4.97541 15.1647 4.63721 14.7476 4.63721H13.2369C12.8198 4.63721 12.4658 4.97541 12.4658 5.39255C12.4658 5.80968 12.8277 6.14789 13.2054 6.14789V7.12114C8.39008 7.48446 4.51896 11.5472 4.51896 16.4892V16.751C4.51896 17.1681 4.88861 17.478 5.30574 17.478H7.63474V18.9887H6.20271C5.03137 18.9887 4.04688 19.9099 4.04688 21.0813V22.7336C4.04688 23.1507 4.41652 23.5207 4.83366 23.5207H23.1507C23.5678 23.5207 23.8746 23.1507 23.8746 22.7336V21.0813C23.8746 19.9099 22.953 18.9887 21.7816 18.9887ZM5.55756 21.0813C5.55756 20.7429 5.86432 20.4994 6.20271 20.4994H21.7816C22.12 20.4994 22.3639 20.7429 22.3639 21.0813V22.01H5.55756V21.0813ZM13.945 8.57697C18.1263 8.57697 21.5578 11.9074 21.8135 15.9673H6.07638C6.33206 11.9074 9.76358 8.57697 13.945 8.57697ZM18.5872 17.478V18.9887H9.14542V17.478H18.5872Z" fill="#2F486A"/>
        <path d="M8.43687 14.3751C8.55149 14.4373 8.67499 14.467 8.79679 14.467C9.06475 14.467 9.3243 14.3239 9.46111 14.072C10.2287 12.6591 11.7018 11.6523 13.3058 11.4445C13.7195 11.3909 14.0115 11.012 13.9578 10.5983C13.9042 10.1848 13.526 9.89244 13.1116 9.94635C11.0358 10.2153 9.12838 11.5199 8.13369 13.3509C7.93466 13.7174 8.07034 14.1761 8.43687 14.3751Z" fill="#2F486A"/>
        <path d="M5.80074 6.91479C5.95011 7.09286 6.16415 7.18454 6.37971 7.18454C6.55098 7.18454 6.72339 7.12657 6.86492 7.00779C7.18452 6.73964 7.22616 6.26321 6.95792 5.9437L5.98684 4.78643C5.71869 4.46683 5.24226 4.42519 4.92266 4.69343C4.60306 4.96157 4.56142 5.438 4.82966 5.75761L5.80074 6.91479Z" fill="#2F486A"/>
        <path d="M4.32998 10.0457C4.53855 9.68448 4.41468 9.2224 4.05343 9.01384L2.745 8.2585C2.38375 8.05002 1.92177 8.17371 1.71311 8.53504C1.50454 8.89629 1.62841 9.35836 1.98966 9.56693L3.29809 10.3223C3.41706 10.3909 3.54688 10.4235 3.67501 10.4235C3.93607 10.4235 4.18996 10.2881 4.32998 10.0457Z" fill="#2F486A"/>
        <path d="M2.37449 12.8925L0.886655 12.6301C0.4766 12.5583 0.0840117 12.832 0.0115934 13.2429C-0.0608248 13.6537 0.213553 14.0454 0.624363 14.1179L2.1122 14.3802C2.15657 14.388 2.20066 14.3917 2.24419 14.3917C2.60383 14.3917 2.92258 14.134 2.98716 13.7675C3.05968 13.3567 2.78539 12.9649 2.37449 12.8925Z" fill="#2F486A"/>
        <path d="M27.9884 13.1558C27.9159 12.7449 27.5246 12.4718 27.1133 12.543L25.6256 12.8052C25.2147 12.8777 24.9404 13.2694 25.0128 13.6803C25.0775 14.0468 25.3962 14.3046 25.7558 14.3046C25.7993 14.3046 25.8435 14.3008 25.8878 14.2931L27.3755 14.0309C27.7865 13.9583 28.0608 13.5666 27.9884 13.1558Z" fill="#2F486A"/>
        <path d="M26.2598 8.46924C26.0514 8.1079 25.5892 7.98403 25.228 8.1926L23.9197 8.94784C23.5583 9.15641 23.4345 9.6184 23.643 9.97964C23.7829 10.222 24.0369 10.3575 24.2979 10.3575C24.426 10.3575 24.5559 10.3248 24.6747 10.2563L25.9831 9.50104C26.3445 9.29247 26.4684 8.83048 26.2598 8.46924Z" fill="#2F486A"/>
        <path d="M21.0901 6.97103C21.2316 7.08981 21.4039 7.14778 21.5753 7.14778C21.7908 7.14778 22.0049 7.05601 22.1543 6.87803L23.1255 5.72085C23.3936 5.40134 23.352 4.92491 23.0325 4.65677C22.7129 4.38862 22.2364 4.43017 21.9683 4.74977L20.9971 5.90695C20.729 6.22636 20.7705 6.70279 21.0901 6.97103Z" fill="#2F486A"/>
    </g>
    <defs>
        <clipPath id="clip0">
            <rect width="28" height="28" fill="white"/>
        </clipPath>
    </defs>
</svg>
