<svg width="96" height="40" viewBox="0 0 96 40" fill="none" xmlns="http://www.w3.org/2000/svg">
    <rect x="0.5" y="0.5" width="95" height="39" rx="3.5" fill="#FAFBFC"/>
    <path d="M32.5568 20.6067C32.4455 20.4792 32.351 20.3401 32.2732 20.1932C32.2349 24.1404 29.0125 27.34 25.0564 27.34C21.0766 27.34 17.8387 24.1021 17.8387 20.1223C17.8387 16.1425 21.0766 12.9046 25.0564 12.9046C28.4801 12.9046 31.3545 15.3009 32.0911 18.5042L32.7447 13.6453L32.7594 13.536C30.8982 11.3624 28.1356 9.98242 25.0564 9.98242C22.6541 9.98242 20.4446 10.8227 18.7054 12.2241V12.3291V12.4219V14.48V14.5617C18.7054 15.9364 17.9929 17.1914 16.8655 17.9086V25.9532V26.0918C18.7114 28.6178 21.6952 30.262 25.0564 30.262C28.5883 30.262 31.7038 28.4464 33.5199 25.6999V25.5514V21.2424C33.1514 21.1226 32.8175 20.9048 32.5568 20.6067Z" fill="#2F486A" fill-opacity="0.75"/>
    <path d="M25.0563 14.1313C21.7528 14.1313 19.0652 16.8189 19.0652 20.1224C19.0652 23.426 21.7527 26.1135 25.0563 26.1135C28.3598 26.1135 31.0473 23.426 31.0473 20.1224C31.0473 16.8189 28.3597 14.1313 25.0563 14.1313Z" fill="#2F486A" fill-opacity="0.75"/>
    <path d="M36.5181 8.91103C36.5181 8.38899 36.0949 7.96582 35.5729 7.96582C35.0996 7.96582 34.6992 8.31589 34.6362 8.78502L33.255 19.0515C33.2186 19.3218 33.3008 19.5945 33.4802 19.7997C33.6597 20.005 33.919 20.1226 34.1917 20.1226H34.7463V31.1347C34.7463 31.6315 35.1491 32.0342 35.6458 32.0342C36.1426 32.0342 36.5453 31.6315 36.5453 31.1347L36.5181 8.91103Z" fill="#2F486A" fill-opacity="0.75"/>
    <path d="M17.4788 9.11085C17.4788 8.77207 17.2043 8.49756 16.8655 8.49756C16.5267 8.49756 16.2522 8.77207 16.2522 9.11085V12.5043H15.3527V9.11085C15.3527 8.77207 15.0782 8.49756 14.7394 8.49756C14.4006 8.49756 14.1261 8.77207 14.1261 9.11085V12.5043H13.2266V9.11085C13.2266 8.77207 12.9521 8.49756 12.6133 8.49756C12.2745 8.49756 12 8.77207 12 9.11085V14.6441C12 15.8395 12.7701 16.8579 13.8399 17.231V31.1349C13.8399 31.6317 14.2426 32.0344 14.7394 32.0344C15.2362 32.0344 15.6389 31.6317 15.6389 31.1349V17.231C16.7087 16.8579 17.4788 15.8395 17.4788 14.6441V9.11085Z" fill="#2F486A" fill-opacity="0.75"/>
    <rect x="0.5" y="0.5" width="95" height="39" rx="3.5" stroke="#DCDFE2"/>
</svg>
