<svg width="32" height="32" viewBox="0 0 32 32" fill="none" xmlns="http://www.w3.org/2000/svg">
    <rect x="0.5" y="0.5" width="31" height="31" rx="3.5" fill="#FAFBFC"/>
    <path d="M21.4003 16.387C21.3277 16.3057 21.2662 16.217 21.2154 16.1233C21.1905 18.6414 19.0899 20.6827 16.5111 20.6827C13.9169 20.6827 11.8063 18.617 11.8063 16.078C11.8063 13.5391 13.9169 11.4734 16.5111 11.4734C18.7429 11.4734 20.6166 13.0022 21.0967 15.0457L21.5228 11.9459L21.5324 11.8762C20.3192 10.4895 18.5184 9.60913 16.5111 9.60913C14.9452 9.60913 13.5049 10.1452 12.3712 11.0393V11.1062V11.1655V12.4784V12.5306C12.3712 13.4076 11.9068 14.2082 11.1719 14.6658V19.798V19.8864C12.3752 21.4979 14.3202 22.5469 16.5111 22.5469C18.8134 22.5469 20.8443 21.3886 22.0281 19.6364V19.5416V16.7927C21.7879 16.7162 21.5703 16.5772 21.4003 16.387Z" fill="#2F486A" fill-opacity="0.75"/>
    <path d="M16.5108 12.2559C14.3574 12.2559 12.6055 13.9704 12.6055 16.078C12.6055 18.1855 14.3574 19.9001 16.5108 19.9001C18.6642 19.9001 20.4161 18.1855 20.4161 16.078C20.4161 13.9704 18.6641 12.2559 16.5108 12.2559Z" fill="#2F486A" fill-opacity="0.75"/>
    <path d="M23.9822 8.92552C23.9822 8.59248 23.7063 8.32251 23.366 8.32251C23.0575 8.32251 22.7965 8.54584 22.7554 8.84513L21.8551 15.3948C21.8314 15.5672 21.885 15.7412 22.0019 15.8721C22.1189 16.0031 22.2879 16.0782 22.4657 16.0782H22.8272V23.1035C22.8272 23.4204 23.0897 23.6774 23.4136 23.6774C23.7374 23.6774 23.9999 23.4204 23.9999 23.1035L23.9822 8.92552Z" fill="#2F486A" fill-opacity="0.75"/>
    <path d="M11.5713 9.05288C11.5713 8.83675 11.3924 8.66162 11.1716 8.66162C10.9507 8.66162 10.7718 8.83675 10.7718 9.05288V11.2178H10.1855V9.05288C10.1855 8.83675 10.0065 8.66162 9.78567 8.66162C9.56484 8.66162 9.3859 8.83675 9.3859 9.05288V11.2178H8.79956V9.05288C8.79956 8.83675 8.62062 8.66162 8.39978 8.66162C8.17894 8.66162 8 8.83675 8 9.05288V12.5829C8 13.3456 8.50196 13.9953 9.19933 14.2333V23.1035C9.19933 23.4204 9.46185 23.6774 9.78567 23.6774C10.1095 23.6774 10.372 23.4204 10.372 23.1035V14.2333C11.0694 13.9953 11.5713 13.3456 11.5713 12.5829V9.05288Z" fill="#2F486A" fill-opacity="0.75"/>
    <rect x="0.5" y="0.5" width="31" height="31" rx="3.5" stroke="#DCDFE2"/>
</svg>