<svg width="11" height="24" viewBox="0 0 11 24" fill="none" xmlns="http://www.w3.org/2000/svg">
    <path d="M5.64607 6.12737C7.3379 6.12737 8.70998 4.75563 8.70998 3.06346C8.70998 1.37157 7.3379 0 5.64607 0C3.95429 0 2.58228 1.37157 2.58228 3.06352C2.58233 4.75563 3.95435 6.12737 5.64607 6.12737Z" fill="#2F486A" fill-opacity="0.75"/>
    <path d="M6.56296 6.70205C6.27792 6.59422 5.96899 6.53467 5.64622 6.53467C5.32305 6.53467 5.01384 6.59428 4.72864 6.70228C3.92598 6.94574 0.901418 8.24391 0.464227 14.0541C0.423818 14.5895 0.825288 15.0562 1.36066 15.0964C1.38544 15.0983 1.41011 15.0993 1.43461 15.0993C1.93839 15.0993 2.36447 14.7105 2.40292 14.1999C2.50261 12.8755 2.74691 11.8583 3.05383 11.0781V14.0709C3.05383 14.2751 3.07799 14.4736 3.12259 14.664V22.8659C3.12259 23.4924 3.63055 24.0001 4.25678 24.0001C4.8833 24.0001 5.39098 23.4923 5.39098 22.8659V16.6509C5.47498 16.6592 5.55993 16.6634 5.64611 16.6634C5.73217 16.6634 5.81734 16.6592 5.9014 16.6509V22.8659C5.9014 23.4925 6.40914 24.0001 7.03543 24.0001C7.66188 24.0001 8.16962 23.4924 8.16962 22.8659V14.6634C8.2141 14.473 8.23844 14.2749 8.23844 14.0711V11.0778C8.54536 11.858 8.78955 12.8753 8.88917 14.1999C8.92757 14.7106 9.35388 15.0994 9.85766 15.0994C9.8821 15.0994 9.90677 15.0984 9.93156 15.0965C10.467 15.0563 10.8682 14.5897 10.828 14.0543C10.3912 8.24157 7.36417 6.94473 6.56296 6.70205Z" fill="#2F486A" fill-opacity="0.75"/>
</svg>