<svg width="154" height="40" viewBox="0 0 154 40" fill="none" xmlns="http://www.w3.org/2000/svg">
    <rect x="0.5" y="0.5" width="153" height="39" rx="3.5" fill="#FAFBFC"/>
    <g clip-path="url(#clip0)">
        <path d="M25.1453 20.9004C23.6935 20.2075 22.1647 19.6123 20.5763 19.124C18.105 18.3642 15.4769 17.858 12.765 17.6194C12.5687 17.6022 12.3739 17.6681 12.2285 17.8013C12.0831 17.9345 12.0002 18.1226 12.0002 18.3198V28.1635C14.4371 25.7386 17.6388 23.6876 21.338 22.1924C22.5596 21.6986 23.8332 21.2674 25.1453 20.9004Z" fill="#2F486A" fill-opacity="0.75"/>
        <path d="M35.2788 20.8123C30.5469 20.9335 25.9084 21.8615 21.865 23.4959C17.906 25.0961 14.5565 27.3513 12.1784 30.0177C12.0635 30.1466 12 30.3132 12 30.4857V31.2966C12 31.4831 12.0741 31.6619 12.206 31.7938C12.3378 31.9257 12.5167 31.9998 12.7031 31.9998L35.2968 31.9995C35.6851 31.9995 36 31.6847 36 31.2964V21.5152C36 21.3255 35.9234 21.144 35.7876 21.0116C35.6519 20.8792 35.4681 20.8072 35.2788 20.8123Z" fill="#2F486A" fill-opacity="0.75"/>
        <path d="M31.0405 13.5981C31.4282 13.5981 31.7437 13.2827 31.7437 12.895C31.7437 12.5073 31.4282 12.1919 31.0405 12.1919C30.6528 12.1919 30.3374 12.5073 30.3374 12.895C30.3374 13.2827 30.6528 13.5981 31.0405 13.5981Z" fill="#2F486A" fill-opacity="0.75"/>
        <path d="M26.8293 13.7678L26.6043 15.0664C26.5463 15.4011 26.7358 15.7293 27.0546 15.8464L28.2917 16.3008L28.9541 17.4402C29.083 17.6619 29.3174 17.7901 29.5621 17.7901C29.6416 17.7901 29.7221 17.7765 29.8005 17.7482L31.0402 17.3012L32.28 17.7482C32.5995 17.8636 32.9557 17.7339 33.1264 17.4402L33.7887 16.3008L35.0259 15.8464C35.3447 15.7292 35.5342 15.401 35.4762 15.0663L35.2512 13.7678L35.9067 12.6245C36.0757 12.3298 36.0099 11.9566 35.7503 11.7375L34.7433 10.8874L34.5106 9.59021C34.4506 9.2559 34.1602 9.01224 33.8206 9.01126L32.5027 9.00737L31.4906 8.1632C31.2298 7.9456 30.8508 7.9456 30.5899 8.1632L29.5778 9.00732L28.2599 9.01121C27.9203 9.0122 27.6299 9.2559 27.5699 9.59021L27.3372 10.8874L26.3302 11.7375C26.0706 11.9566 26.0048 12.3299 26.1738 12.6245L26.8293 13.7678ZM31.0402 10.7856C32.2033 10.7856 33.1496 11.7319 33.1496 12.895C33.1496 14.0581 32.2033 15.0044 31.0402 15.0044C29.8771 15.0044 28.9308 14.0581 28.9308 12.895C28.9308 11.7319 29.8771 10.7856 31.0402 10.7856Z" fill="#2F486A" fill-opacity="0.75"/>
    </g>
    <rect x="0.5" y="0.5" width="153" height="39" rx="3.5" stroke="#DCDFE2"/>
    <defs>
        <clipPath id="clip0">
            <rect width="24" height="24" fill="white" transform="translate(12 8)"/>
        </clipPath>
    </defs>
</svg>
