<svg width="32" height="32" viewBox="0 0 32 32" fill="none" xmlns="http://www.w3.org/2000/svg">
    <rect x="0.5" y="0.5" width="31" height="31" rx="3.5" fill="#FAFBFC"/>
    <g clip-path="url(#clip0)">
        <path d="M16.7157 16.5629C15.8083 16.1298 14.8528 15.7578 13.86 15.4526C12.3154 14.9777 10.6729 14.6613 8.97798 14.5122C8.85525 14.5015 8.73355 14.5427 8.64265 14.6259C8.55177 14.7091 8.5 14.8267 8.5 14.95V21.1023C10.023 19.5867 12.0241 18.3049 14.3361 17.3703C15.0996 17.0617 15.8956 16.7922 16.7157 16.5629Z" fill="#2F486A" fill-opacity="0.75"/>
        <path d="M23.0493 16.5078C20.0918 16.5835 17.1928 17.1635 14.6656 18.185C12.1913 19.1851 10.0978 20.5947 8.61147 22.2612C8.53967 22.3417 8.5 22.4458 8.5 22.5537V23.0605C8.5 23.177 8.54632 23.2888 8.62873 23.3712C8.71114 23.4536 8.82291 23.4999 8.93945 23.4999L23.0605 23.4998C23.3032 23.4998 23.5 23.303 23.5 23.0603V16.9471C23.5 16.8286 23.4521 16.7151 23.3673 16.6324C23.2824 16.5496 23.1676 16.5046 23.0493 16.5078Z" fill="#2F486A" fill-opacity="0.75"/>
        <path d="M20.4004 11.999C20.6427 11.999 20.8398 11.8018 20.8398 11.5595C20.8398 11.3172 20.6427 11.1201 20.4004 11.1201C20.1581 11.1201 19.9609 11.3172 19.9609 11.5595C19.9609 11.8018 20.1581 11.999 20.4004 11.999Z" fill="#2F486A" fill-opacity="0.75"/>
        <path d="M17.7687 12.105L17.6281 12.9166C17.5919 13.1258 17.7103 13.3309 17.9096 13.4041L18.6827 13.6881L19.0967 14.4002C19.1773 14.5388 19.3238 14.6189 19.4767 14.6189C19.5264 14.6189 19.5768 14.6104 19.6257 14.5928L20.4005 14.3134L21.1754 14.5928C21.3751 14.6648 21.5978 14.5838 21.7044 14.4002L22.1184 13.6881L22.8916 13.4041C23.0908 13.3309 23.2093 13.1257 23.173 12.9166L23.0324 12.105L23.4421 11.3904C23.5477 11.2062 23.5066 10.973 23.3444 10.836L22.715 10.3048L22.5695 9.49399C22.5321 9.28504 22.3506 9.13276 22.1383 9.13214L21.3146 9.12971L20.6821 8.6021C20.519 8.46611 20.2821 8.46611 20.1191 8.6021L19.4866 9.12968L18.6629 9.13211C18.4506 9.13273 18.2691 9.28504 18.2316 9.49399L18.0862 10.3047L17.4568 10.836C17.2946 10.973 17.2534 11.2063 17.359 11.3904L17.7687 12.105ZM20.4006 10.2411C21.1275 10.2411 21.7189 10.8325 21.7189 11.5595C21.7189 12.2864 21.1275 12.8778 20.4006 12.8778C19.6736 12.8778 19.0822 12.2864 19.0822 11.5595C19.0822 10.8325 19.6736 10.2411 20.4006 10.2411Z" fill="#2F486A" fill-opacity="0.75"/>
    </g>
    <rect x="0.5" y="0.5" width="31" height="31" rx="3.5" stroke="#DCDFE2"/>
    <defs>
        <clipPath id="clip0">
            <rect width="15" height="15" fill="white" transform="translate(8.5 8.5)"/>
        </clipPath>
    </defs>
</svg>