<svg width="211" height="40" viewBox="0 0 211 40" fill="none" xmlns="http://www.w3.org/2000/svg">
    <rect x="0.5" y="0.5" width="210" height="39" rx="3.5" fill="#FAFBFC"/>
    <g clip-path="url(#clip0)">
        <path d="M29.6958 12.6379C29.3297 13.0547 29.2104 13.6676 29.5247 14.1455C29.7656 14.5115 30.1826 14.7124 30.3779 15.1155C30.6469 15.6709 30.3497 16.3983 29.7173 16.5177C29.5959 16.5407 29.7059 16.3984 29.7282 16.3596C29.8065 16.2234 29.8754 16.0776 29.9059 15.9225C29.9654 15.6209 29.8187 15.2917 29.653 15.0451C29.589 14.9495 29.5159 14.8629 29.4438 14.7733C29.2403 14.5186 29.0796 14.2253 29.0432 13.8969C29.0083 13.5798 29.0956 13.2621 29.2727 12.9982C29.3471 12.8874 29.4344 12.7858 29.533 12.6958C29.5698 12.6621 29.6077 12.6294 29.648 12.6001C29.6758 12.5799 29.7267 12.6044 29.6958 12.6379Z" fill="#2F486A" fill-opacity="0.75"/>
        <path d="M27.6005 16.1361C27.7364 16.4234 27.863 16.7296 27.8736 17.0514C27.8845 17.3835 27.7649 17.7068 27.6171 17.9988C27.5518 18.1278 27.4791 18.2526 27.4036 18.3759C27.3615 18.4447 27.3722 18.5125 27.4693 18.4983C27.7249 18.4611 27.978 18.3348 28.184 18.1834C28.6844 17.8159 28.9652 17.2198 28.9317 16.5997C28.8967 15.9521 28.5288 15.4378 28.0766 15.0037C27.8941 14.8284 27.6919 14.6753 27.5141 14.4946C27.0515 14.0251 26.7318 13.4284 26.7749 12.7543C26.811 12.1875 27.0784 11.6056 27.4495 11.1789C27.4822 11.1424 27.4531 11.0821 27.4035 11.0861C27.3818 11.0878 27.3626 11.1055 27.3463 11.1178C27.2756 11.171 27.2079 11.2283 27.1427 11.2879C26.9918 11.4258 26.8555 11.5776 26.734 11.7421C26.4756 12.0919 26.2931 12.4999 26.229 12.9317C26.0995 13.8041 26.4854 14.6181 27.0315 15.2742C27.2548 15.5427 27.4499 15.818 27.6005 16.1361Z" fill="#2F486A" fill-opacity="0.75"/>
        <path d="M23.5456 7.27246C16.7785 7.27246 11.2729 12.778 11.2729 19.5451C11.2729 26.3123 16.7785 31.8178 23.5456 31.8178C30.3128 31.8178 35.8183 26.3123 35.8183 19.5451C35.8183 12.778 30.3128 7.27246 23.5456 7.27246ZM33.9622 19.5451C33.9622 22.0834 33.0491 24.4123 31.5347 26.2215L27.5422 22.2291H28.3925C28.6987 22.2291 28.9469 21.9809 28.9469 21.6747V19.8271C28.9469 19.521 28.6987 19.2727 28.3925 19.2727H26.6226V21.3096L25.819 20.5061V19.2727H24.5857L16.8691 11.5564C18.6782 10.0419 21.0072 9.12868 23.5456 9.12868C29.2893 9.12868 33.9622 13.8015 33.9622 19.5451ZM13.1292 19.5451C13.1292 17.0068 14.0423 14.678 15.5566 12.8689L21.9605 19.2727H16.8953C16.5892 19.2727 16.3409 19.521 16.3409 19.8271V21.6747C16.3409 21.9809 16.5892 22.2291 16.8953 22.2291H24.9171L30.2221 27.534C28.413 29.0485 26.0842 29.9617 23.5456 29.9617C17.802 29.9617 13.1292 25.2888 13.1292 19.5451Z" fill="#2F486A" fill-opacity="0.75"/>
    </g>
    <rect x="0.5" y="0.5" width="210" height="39" rx="3.5" stroke="#DCDFE2"/>
    <defs>
        <clipPath id="clip0">
            <rect width="24.5455" height="24.5455" fill="white" transform="translate(11.2729 7.27246)"/>
        </clipPath>
    </defs>
</svg>
