<svg width="153" height="35" viewBox="0 0 153 35" fill="none" xmlns="http://www.w3.org/2000/svg">
    <g opacity="0.5">
        <path d="M69.1196 21.359V16.585C69.1196 14.7836 67.9665 13.571 66.1107 13.5551C65.5821 13.521 65.0541 13.6288 64.5816 13.8673C64.1091 14.1058 63.7095 14.4662 63.4243 14.9109C63.1645 14.4794 62.7927 14.1257 62.348 13.887C61.9033 13.6484 61.4023 13.5337 60.8977 13.5551C60.4583 13.5339 60.021 13.6273 59.6289 13.826C59.2367 14.0247 58.9034 14.3218 58.6617 14.6881V13.7333H56.9976V21.359H58.6777V17.1356C58.6777 15.8116 59.4124 15.1114 60.5495 15.1114C61.6867 15.1114 62.2137 15.8275 62.2137 17.1197V21.359H63.8843V17.1356C63.8843 15.8116 64.6509 15.1114 65.7561 15.1114C66.8613 15.1114 67.4363 15.8275 67.4363 17.1197V21.359H69.1196ZM93.9803 13.7397H91.262V11.429H89.5818V13.7397H88.0294V15.2546H89.5818V18.7269C89.5818 20.4965 90.2686 21.55 92.2362 21.55C92.9711 21.5523 93.6918 21.3483 94.3156 20.9612L93.8365 19.5417C93.39 19.8067 92.8834 19.9545 92.364 19.9714C91.5335 19.9714 91.2588 19.4621 91.2588 18.6983V15.2546H93.9771L93.9803 13.7397ZM108.172 13.5487C107.766 13.5369 107.365 13.6345 107.01 13.8311C106.655 14.0277 106.361 14.3161 106.157 14.6658V13.7397H104.508V21.359H106.173V17.0878C106.173 15.8148 106.716 15.1273 107.805 15.1273C108.161 15.1222 108.515 15.1871 108.846 15.3183L109.357 13.7556C108.977 13.62 108.576 13.5501 108.172 13.5487ZM86.7166 14.3444C85.7744 13.7866 84.6911 13.5104 83.5958 13.5487C81.6601 13.5487 80.4016 14.4749 80.4016 15.9866C80.4016 17.2311 81.3279 17.9949 83.04 18.2336L83.8226 18.345C84.733 18.4723 85.1674 18.711 85.1674 19.1407C85.1674 19.7295 84.5605 20.0668 83.4234 20.0668C82.5059 20.0959 81.6056 19.8155 80.868 19.2712L80.1109 20.5602C81.0801 21.2353 82.2413 21.5823 83.4234 21.55C85.6306 21.55 86.9114 20.5124 86.9114 19.0643C86.9114 17.7244 85.9021 17.0242 84.2411 16.7855L83.4585 16.6741C82.7398 16.5786 82.1616 16.4354 82.1616 15.9262C82.1616 15.3692 82.7047 15.035 83.6182 15.035C84.4552 15.0473 85.2753 15.2719 86.0011 15.6875L86.7166 14.3444ZM131.282 13.5487C130.877 13.5369 130.475 13.6345 130.12 13.8311C129.766 14.0277 129.471 14.3161 129.267 14.6658V13.7397H127.619V21.359H129.283V17.0878C129.283 15.8148 129.826 15.1273 130.915 15.1273C131.271 15.1222 131.625 15.1871 131.956 15.3183L132.467 13.7556C132.087 13.62 131.686 13.5501 131.282 13.5487ZM109.852 17.5493C109.852 19.86 111.469 21.55 113.931 21.55C114.93 21.5992 115.911 21.2745 116.682 20.6397L115.883 19.2998C115.308 19.7363 114.607 19.9763 113.883 19.9841C112.555 19.9841 111.58 19.0102 111.58 17.5462C111.58 16.0821 112.558 15.1241 113.883 15.1082C114.607 15.116 115.308 15.356 115.883 15.7925L116.682 14.4526C115.911 13.8178 114.93 13.4931 113.931 13.5423C111.469 13.5423 109.852 15.2323 109.852 17.543V17.5493ZM125.434 17.5493V13.7301H123.77V14.6563C123.486 14.2915 123.119 13.9997 122.698 13.8053C122.278 13.611 121.818 13.5197 121.355 13.5392C119.211 13.5392 117.522 15.2132 117.522 17.5398C117.522 19.8663 119.202 21.5404 121.355 21.5404C121.818 21.5599 122.278 21.4686 122.698 21.2743C123.119 21.0799 123.486 20.7881 123.77 20.4233V21.3463H125.434V17.5493ZM119.243 17.5493C119.243 16.2094 120.122 15.1114 121.562 15.1114C122.939 15.1114 123.865 16.1649 123.865 17.5493C123.865 18.9338 122.939 19.9873 121.562 19.9873C120.122 19.9873 119.243 18.8861 119.243 17.5493ZM99.1645 13.5487C96.9285 13.5487 95.357 15.1751 95.357 17.5493C95.357 19.9714 96.9892 21.55 99.2763 21.55C100.418 21.5898 101.535 21.2091 102.413 20.4806L101.598 19.2521C100.963 19.7585 100.176 20.0386 99.3625 20.0477C98.2893 20.0477 97.315 19.5544 97.0755 18.1827H102.755C102.771 17.9758 102.787 17.7689 102.787 17.5462C102.787 15.1719 101.298 13.5455 99.1549 13.5455L99.1645 13.5487ZM99.1325 15.0318C100.206 15.0318 100.893 15.7002 101.068 16.881H97.1042C97.2799 15.7798 97.9507 15.0318 99.1357 15.0318H99.1325ZM140.865 17.5493V10.6779H139.201V14.6626C138.917 14.2978 138.55 14.006 138.13 13.8117C137.71 13.6173 137.249 13.5261 136.786 13.5455C134.643 13.5455 132.953 15.2196 132.953 17.5462C132.953 19.8727 134.633 21.5468 136.786 21.5468C137.249 21.5663 137.71 21.475 138.13 21.2806C138.55 21.0863 138.917 20.7945 139.201 20.4297V21.3526H140.865V17.5493ZM134.681 17.5493C134.681 16.2094 135.559 15.1114 137 15.1114C138.377 15.1114 139.303 16.1649 139.303 17.5493C139.303 18.9338 138.377 19.9873 137 19.9873C135.559 19.9873 134.681 18.8861 134.681 17.5493ZM78.4947 17.5493V13.7301H76.8305V14.6563C76.5467 14.2946 76.1805 14.0054 75.7622 13.8128C75.3439 13.6202 74.8856 13.5297 74.4252 13.5487C72.2819 13.5487 70.5922 15.2228 70.5922 17.5493C70.5922 19.8759 72.2723 21.55 74.4252 21.55C74.888 21.5694 75.3488 21.4782 75.7689 21.2838C76.189 21.0895 76.5563 20.7977 76.8401 20.4328V21.3558H78.5043L78.4947 17.5493ZM72.3043 17.5493C72.3043 16.2094 73.1827 15.1114 74.6233 15.1114C76 15.1114 76.9263 16.1649 76.9263 17.5493C76.9263 18.9338 76 19.9873 74.6233 19.9873C73.1827 19.9873 72.3043 18.8892 72.3043 17.5493Z" fill="#231F20"/>
        <path d="M35.7625 8.49139H25.7007V26.5086H35.7625V8.49139Z" fill="#FF5F00"/>
        <path d="M26.3395 17.5057C26.3382 15.7708 26.7329 14.0583 27.4938 12.4979C28.2547 10.9374 29.3619 9.56986 30.7316 8.49871C29.0352 7.17032 26.9979 6.34428 24.8526 6.11498C22.7073 5.88569 20.5406 6.2624 18.6 7.20205C16.6594 8.14171 15.0233 9.6064 13.8786 11.4287C12.734 13.2511 12.127 15.3575 12.127 17.5073C12.127 19.6571 12.734 21.7635 13.8786 23.5859C15.0233 25.4082 16.6594 26.8729 18.6 27.8125C20.5406 28.7522 22.7073 29.1289 24.8526 28.8996C26.9979 28.6703 29.0352 27.8443 30.7316 26.5159C29.3615 25.4444 28.2541 24.0763 27.4931 22.5153C26.7322 20.9542 26.3377 19.2411 26.3395 17.5057Z" fill="#EB001B"/>
        <path d="M49.3378 17.5048C49.3377 19.6547 48.7306 21.7613 47.5857 23.5837C46.4409 25.4061 44.8045 26.8708 42.8637 27.8103C40.9228 28.7498 38.7559 29.1263 36.6104 28.8966C34.465 28.667 32.4277 27.8406 30.7314 26.5118C32.1006 25.4397 33.2075 24.0717 33.9686 22.5112C34.7297 20.9507 35.1252 19.2382 35.1252 17.5032C35.1252 15.7681 34.7297 14.0557 33.9686 12.4952C33.2075 10.9346 32.1006 9.56671 30.7314 8.4946C32.4279 7.16563 34.4655 6.33915 36.6112 6.10965C38.7569 5.88014 40.9242 6.25688 42.8651 7.19679C44.806 8.1367 46.4424 9.60184 47.587 11.4247C48.7316 13.2475 49.3383 15.3545 49.3378 17.5048Z" fill="#F79E1B"/>
    </g>
</svg>