<svg width="94" height="35" viewBox="0 0 94 35" fill="none" xmlns="http://www.w3.org/2000/svg">
    <g opacity="0.5">
        <path d="M42.4701 27.5909H37.3711L40.5604 7.47406H45.6592L42.4701 27.5909Z" fill="#00579F"/>
        <path d="M60.9549 7.96583C59.9492 7.55879 58.354 7.10938 56.3815 7.10938C51.346 7.10938 47.8001 9.84854 47.7783 13.7647C47.7365 16.6541 50.3171 18.2589 52.2472 19.2223C54.22 20.2067 54.8906 20.8493 54.8906 21.7268C54.8705 23.0745 53.2965 23.6957 51.8284 23.6957C49.7926 23.6957 48.7018 23.3754 47.0442 22.6256L46.3727 22.3042L45.6592 26.82C46.8551 27.3758 49.0585 27.869 51.346 27.8906C56.6963 27.8906 60.1795 25.1938 60.2208 21.0205C60.2411 18.7305 58.8785 16.9758 55.9407 15.5419C54.1572 14.6215 53.065 14.0008 53.065 13.059C53.0859 12.2029 53.9888 11.3259 56.002 11.3259C57.6597 11.283 58.8776 11.6894 59.8003 12.0962L60.2615 12.3098L60.9549 7.96583Z" fill="#00579F"/>
        <path d="M67.7318 20.4642C68.1518 19.3085 69.7676 14.8357 69.7676 14.8357C69.7464 14.8786 70.1867 13.6587 70.4385 12.9097L70.7948 14.6431C70.7948 14.6431 71.7604 19.4584 71.9701 20.4642C71.1732 20.4642 68.739 20.4642 67.7318 20.4642ZM74.026 7.47406H70.0819C68.8656 7.47406 67.9415 7.83758 67.4168 9.14316L59.8428 27.5906H65.1931C65.1931 27.5906 66.0739 25.1077 66.2632 24.5729C66.8502 24.5729 72.0549 24.5729 72.81 24.5729C72.9564 25.2792 73.4184 27.5906 73.4184 27.5906H78.1396L74.026 7.47406Z" fill="#00579F"/>
        <path d="M33.112 7.47406L28.1184 21.1918L27.5727 18.4097C26.6495 15.1995 23.7541 11.7117 20.5229 9.97743L25.097 27.5695H30.4891L38.5039 7.47406H33.112Z" fill="#00579F"/>
        <path d="M23.4816 7.47406H15.2778L15.1938 7.88053C21.5934 9.54991 25.8317 13.5739 27.573 18.4105L25.7896 9.16506C25.4959 7.88024 24.5936 7.51644 23.4816 7.47406Z" fill="#FAA61A"/>
    </g>
</svg>