<svg width="92" height="35" viewBox="0 0 92 35" fill="none" xmlns="http://www.w3.org/2000/svg">
    <g opacity="0.5">
        <path fill-rule="evenodd" clip-rule="evenodd" d="M35.1156 19.3178C34.7762 20.1798 34.2064 20.9165 33.4912 21.4356C32.7733 21.9534 31.9175 22.255 30.9849 22.2561C30.3624 22.2561 29.776 22.1217 29.2397 21.8787C28.4372 21.5142 27.7503 20.9025 27.2667 20.1337C26.7838 19.366 26.502 18.4464 26.5017 17.4468C26.5017 16.779 26.6273 16.1495 26.8538 15.5752C27.1929 14.7135 27.763 13.9765 28.4792 13.4577C29.1974 12.9393 30.0522 12.6373 30.9849 12.6373C31.6071 12.6373 32.1938 12.7717 32.7297 13.0136C33.5325 13.3792 34.2185 13.9908 34.702 14.7586C35.1863 15.5273 35.4668 16.4466 35.4671 17.4468C35.4671 18.1144 35.3411 18.7439 35.1156 19.3178ZM34.732 11.4862C33.6643 10.7104 32.3692 10.2573 30.9849 10.2573C30.063 10.2573 29.1782 10.4587 28.3761 10.8225C27.173 11.3696 26.1516 12.2791 25.4285 13.4266C24.708 14.5721 24.2837 15.9613 24.2847 17.4468C24.2837 18.4363 24.4711 19.3845 24.8112 20.2458C25.3198 21.5372 26.1685 22.6328 27.2374 23.4068C28.3051 24.1829 29.6009 24.6371 30.9849 24.6361C31.9071 24.6361 32.7912 24.4339 33.5937 24.0701C34.7974 23.5238 35.8182 22.6139 36.5413 21.4677C37.2633 20.3209 37.6861 18.931 37.6851 17.4468C37.6851 16.4571 37.4976 15.5088 37.1579 14.6472C36.6486 13.3568 35.8003 12.2613 34.732 11.4862Z" fill="#5D2E88"/>
        <path fill-rule="evenodd" clip-rule="evenodd" d="M18.8127 21.5032C18.0962 22.0096 17.2395 22.3049 16.307 22.3063C15.6862 22.3063 15.0989 22.1744 14.5623 21.9369C13.7606 21.5797 13.0731 20.9813 12.5903 20.2288C12.1071 19.4769 11.825 18.5767 11.825 17.5983C11.825 16.9445 11.9503 16.3283 12.1764 15.7664C12.5164 14.9226 13.0865 14.2012 13.8026 13.6933C14.5194 13.1862 15.3754 12.8906 16.307 12.8906C16.9297 12.8906 17.5164 13.0218 18.0516 13.2586C18.8553 13.6164 19.5415 14.2152 20.025 14.9671C20.5082 15.7193 20.7886 16.6195 20.7899 17.5983C20.7886 18.2517 20.664 18.8682 20.4379 19.4301C20.0985 20.2739 19.5285 20.9946 18.8127 21.5032ZM21.8985 4.375C21.2865 4.375 20.7899 4.89618 20.7899 5.54005V12.3687C20.5586 12.1489 20.3133 11.9466 20.0536 11.7634C18.9861 11.0041 17.6918 10.5605 16.307 10.5605C15.3852 10.5605 14.5018 10.758 13.6988 11.1141C12.4956 11.6493 11.4746 12.5396 10.7519 13.6633C10.0299 14.7842 9.60662 16.1444 9.60792 17.5983C9.60662 18.5668 9.79435 19.4953 10.134 20.3381C10.6442 21.6026 11.4925 22.6747 12.5603 23.4327C13.6289 24.1921 14.9242 24.6371 16.307 24.636C17.2301 24.636 18.1138 24.4382 18.9152 24.0817C20.12 23.5469 21.1404 22.6566 21.8624 21.5343C22.529 20.4991 22.9397 19.2606 22.9989 17.9335C23.0044 17.8894 23.0083 17.8436 23.0083 17.7965V5.54005C23.0083 4.89618 22.5105 4.375 21.8985 4.375Z" fill="#5D2E88"/>
        <path fill-rule="evenodd" clip-rule="evenodd" d="M49.7916 19.4535C49.4528 20.2973 48.8824 21.0184 48.1671 21.5266C47.4503 22.0334 46.5938 22.3287 45.6618 22.3297C45.0393 22.3297 44.4516 22.1982 43.9163 21.9603C43.1135 21.6035 42.4262 21.0047 41.944 20.2522C41.4598 19.5006 41.1789 18.6004 41.1776 17.622C41.1776 16.9682 41.3039 16.352 41.5294 15.7898C41.8695 14.9463 42.4389 14.2248 43.1552 13.717C43.873 13.2095 44.7282 12.9138 45.6618 12.9138C46.2833 12.9138 46.8697 13.0454 47.4057 13.2823C48.2094 13.6401 48.8954 14.2389 49.3783 14.9904C49.8628 15.743 50.1433 16.6428 50.1443 17.622C50.1433 18.2754 50.0181 18.8916 49.7916 19.4535ZM49.4086 11.787C48.3403 11.0277 47.0458 10.584 45.6618 10.584C44.7399 10.584 43.8541 10.7812 43.0533 11.1374C41.849 11.6729 40.8272 12.5632 40.1044 13.6866C39.3833 14.8079 38.9596 16.1678 38.9609 17.622V29.68C38.9609 30.3239 39.4559 30.8451 40.069 30.8451C40.6814 30.8451 41.1776 30.3239 41.1776 29.68V22.8526C41.409 23.0707 41.655 23.273 41.9134 23.4562C42.9814 24.2159 44.2775 24.6606 45.6618 24.6595C46.5834 24.6595 47.4672 24.4617 48.2696 24.1055C49.474 23.5707 50.4945 22.68 51.2175 21.558C51.9393 20.4353 52.3623 19.0748 52.3613 17.622C52.3623 16.6531 52.1746 15.7248 51.8348 14.8814C51.3249 13.6182 50.4769 12.5458 49.4086 11.787Z" fill="#5D2E88"/>
        <path fill-rule="evenodd" clip-rule="evenodd" d="M64.4687 19.3178C64.129 20.1798 63.5592 20.9165 62.843 21.4356C62.1268 21.9534 61.27 22.255 60.3387 22.2561C59.7162 22.2561 59.1292 22.1217 58.592 21.8787C57.7898 21.5142 57.1029 20.9025 56.62 20.1337C56.1361 19.366 55.855 18.4464 55.855 17.4468C55.855 16.779 55.9806 16.1495 56.2064 15.5752C56.5458 14.7135 57.115 13.9765 57.8325 13.4577C58.549 12.9393 59.4048 12.6373 60.3387 12.6373C60.9593 12.6373 61.5466 12.7717 62.0819 13.0136C62.8853 13.3792 63.5713 13.9908 64.0558 14.7586C64.539 15.5273 64.8198 16.4466 64.8202 17.4468C64.8198 18.1144 64.6939 18.7439 64.4687 19.3178ZM64.0844 11.4862C63.0168 10.7104 61.7217 10.2573 60.3387 10.2573C59.4159 10.2573 58.5318 10.4587 57.729 10.8225C56.525 11.3696 55.5039 12.2791 54.7812 13.4266C54.0601 14.5721 53.6364 15.9613 53.6377 17.4468C53.6377 18.4363 53.8245 19.3845 54.1632 20.2458C54.6728 21.5372 55.5215 22.6328 56.5901 23.4068C57.6577 24.1829 58.9541 24.6371 60.3387 24.6361C61.2606 24.6361 62.1434 24.4339 62.9462 24.0701C63.6396 23.7563 64.2712 23.3209 64.8202 22.7892V23.4459C64.8202 24.103 65.3164 24.6361 65.9295 24.6361C66.5415 24.6361 67.0381 24.103 67.0381 23.4459V17.4468C67.0384 16.4571 66.8507 15.5088 66.5116 14.6472C66.0023 13.3568 65.1537 12.2613 64.0844 11.4862Z" fill="#5D2E88"/>
        <path fill-rule="evenodd" clip-rule="evenodd" d="M80.9256 10.584C80.3123 10.584 79.8167 11.1056 79.8167 11.7491V13.5328V17.622C79.8167 18.2754 79.6911 18.892 79.4653 19.4535C79.126 20.2973 78.5556 21.0184 77.8397 21.5269C77.1226 22.0334 76.2669 22.3287 75.334 22.3297C74.7119 22.3297 74.1265 22.1982 73.5896 21.9603C72.7866 21.6035 72.1004 21.0047 71.6175 20.2522C71.1333 19.5006 70.8529 18.6004 70.8529 17.622V11.7491C70.8529 11.1056 70.3557 10.584 69.7433 10.584C69.131 10.584 68.6338 11.1056 68.6338 11.7491V17.622C68.6338 18.5905 68.8215 19.5191 69.1612 20.3619C69.6704 21.6264 70.5181 22.6985 71.5876 23.4565C72.6548 24.2159 73.9505 24.6606 75.334 24.6595C76.2551 24.6595 77.1398 24.4617 77.9422 24.1055C78.6353 23.7983 79.2665 23.3721 79.8167 22.8516V23.8072C79.8167 24.4613 79.6911 25.0775 79.4653 25.6404C79.126 26.4832 78.5556 27.204 77.8397 27.7125C77.1226 28.2204 76.2669 28.5156 75.334 28.5156C74.7213 28.5156 74.2251 29.0372 74.2251 29.68C74.2251 30.3239 74.7213 30.8451 75.334 30.8451C76.2551 30.8451 77.1398 30.6486 77.9422 30.2911C79.1465 29.7562 80.1678 28.8659 80.8898 27.7439C81.6115 26.6213 82.0352 25.2614 82.0342 23.8072V17.622V13.5328V11.7491C82.0342 11.1056 81.5377 10.584 80.9256 10.584Z" fill="#5D2E88"/>
    </g>
</svg>