<svg width="28" height="28" viewBox="0 0 28 28" fill="none" xmlns="http://www.w3.org/2000/svg">
    <path d="M3.59024 6.28645C3.28254 6.28645 3.02621 6.47139 2.90956 6.73592C2.81888 6.4221 2.53394 6.19238 2.19096 6.19238C1.84789 6.19238 1.56108 6.4221 1.4704 6.73592C1.35375 6.47139 1.07483 6.28645 0.767228 6.28645C0.35163 6.28645 0 6.62341 0 7.03901V10.5537C0 11.4675 0.658484 12.2486 1.41104 12.5501V22.5604C1.41104 22.976 1.74799 23.313 2.16359 23.313C2.57919 23.313 2.91614 22.976 2.91614 22.5604V12.5501C3.76277 12.2485 4.32718 11.4674 4.32718 10.5537V7.03901C4.32709 6.62341 4.00575 6.28645 3.59024 6.28645Z" fill="#2F486A"/>
    <path d="M14.2357 4.65576C9.08333 4.65576 4.8916 8.84758 4.8916 14C4.8916 19.1525 9.08333 23.3443 14.2357 23.3443C19.3881 23.3443 23.58 19.1525 23.58 14C23.58 8.84758 19.3881 4.65576 14.2357 4.65576ZM14.2357 21.8392C9.9133 21.8392 6.39671 18.3226 6.39671 14C6.39671 9.67746 9.9133 6.16087 14.2357 6.16087C18.5582 6.16087 22.0749 9.67756 22.0749 14C22.0749 18.3225 18.5582 21.8392 14.2357 21.8392Z" fill="#2F486A"/>
    <path fill-rule="evenodd" clip-rule="evenodd" d="M6.39648 14.0003C6.39648 9.67782 9.91308 6.16113 14.2355 6.16113C18.5579 6.16113 22.0746 9.67782 22.0746 14.0003C22.0746 18.3228 18.5579 21.8395 14.2355 21.8395C9.91308 21.8395 6.39648 18.3228 6.39648 14.0003ZM7.90169 14.0003C7.90169 17.4929 10.743 20.3343 14.2355 20.3343C17.7281 20.3343 20.5694 17.4929 20.5694 14.0003C20.5694 10.5077 17.7281 7.66634 14.2355 7.66634C10.743 7.66634 7.90169 10.5077 7.90169 14.0003Z" fill="#267FF9"/>
    <path d="M14.2356 7.66602C10.7432 7.66602 7.90186 10.5074 7.90186 14C7.90186 17.4926 10.7432 20.3339 14.2356 20.3339C17.7282 20.3339 20.5696 17.4926 20.5696 14C20.5696 10.5074 17.7282 7.66602 14.2356 7.66602ZM14.2356 18.8288C11.5731 18.8288 9.40696 16.6626 9.40696 14C9.40696 11.3374 11.5731 9.17112 14.2356 9.17112C16.8983 9.17112 19.0645 11.3374 19.0645 14C19.0645 16.6626 16.8983 18.8288 14.2356 18.8288Z" fill="#2F486A"/>
    <path d="M27.9839 12.3347L26.4473 5.27948C26.3656 4.90386 25.9992 4.65034 25.6159 4.69136C25.2336 4.73256 24.9282 5.05512 24.9282 5.43958V22.5602C24.9282 22.9758 25.2652 23.3127 25.6808 23.3127C26.0964 23.3127 26.4333 22.9758 26.4333 22.5602V14.0235L27.6844 13.0968C27.92 12.9202 28.0465 12.6224 27.9839 12.3347Z" fill="#2F486A"/>
</svg>
