<svg width="32" height="32" viewBox="0 0 32 32" fill="none" xmlns="http://www.w3.org/2000/svg">
    <rect x="0.5" y="0.5" width="31" height="31" rx="3.5" fill="#FAFBFC"/>
    <path d="M22.3173 7.8551C22.3173 7.3836 21.9337 7.00003 21.4621 7.00003H10.5377C10.0662 7.00003 9.68262 7.3836 9.68262 7.8551V22.5715C9.68262 23.0431 10.0663 23.4267 10.5377 23.4267H21.4622C21.9338 23.4267 22.3174 23.0431 22.3174 22.5715V7.8551H22.3173ZM21.248 22.3577H10.7519V8.06929H21.248V22.3577Z" fill="#2F486A" fill-opacity="0.75"/>
    <path d="M21.6728 23.9306H10.267C9.97153 23.9306 9.73242 24.1701 9.73242 24.4653C9.73242 24.7605 9.97153 25 10.267 25H21.6728C21.968 25 22.2075 24.7605 22.2075 24.4653C22.2075 24.1701 21.968 23.9306 21.6728 23.9306Z" fill="#2F486A" fill-opacity="0.75"/>
    <path d="M12.4057 19.6317C12.7012 19.6317 12.9403 19.3922 12.9403 19.097V12.0125C12.9403 11.7173 12.7012 11.4778 12.4057 11.4778C12.1102 11.4778 11.8711 11.7173 11.8711 12.0125V19.0962C11.871 19.3922 12.1102 19.6317 12.4057 19.6317Z" fill="#2F486A" fill-opacity="0.75"/>
    <rect x="0.5" y="0.5" width="31" height="31" rx="3.5" stroke="#DCDFE2"/>
</svg>