<svg width="147" height="40" viewBox="0 0 147 40" fill="none" xmlns="http://www.w3.org/2000/svg">
    <rect x="0.5" y="0.5" width="146" height="39" rx="3.5" fill="#FAFBFC"/>
    <g clip-path="url(#clip0)">
        <path d="M32.1603 8.43846C32.1603 7.79551 31.6372 7.27246 30.9941 7.27246H16.0972C15.4542 7.27246 14.9312 7.79551 14.9312 8.43846V28.5062C14.9312 29.1494 15.4543 29.6724 16.0972 29.6724H30.9942C31.6373 29.6724 32.1604 29.1494 32.1604 28.5062V8.43846H32.1603ZM30.7022 28.2148H16.3892V8.73054H30.7022V28.2148Z" fill="#2F486A" fill-opacity="0.75"/>
        <path d="M31.2816 30.3599H15.7283C15.3253 30.3599 14.9993 30.6864 14.9993 31.089C14.9993 31.4915 15.3253 31.8181 15.7283 31.8181H31.2816C31.6842 31.8181 32.0107 31.4915 32.0107 31.089C32.0107 30.6864 31.6842 30.3599 31.2816 30.3599Z" fill="#2F486A" fill-opacity="0.75"/>
        <path d="M18.6445 24.4973C19.0475 24.4973 19.3735 24.1708 19.3735 23.7683V14.1075C19.3735 13.705 19.0475 13.3784 18.6445 13.3784C18.2416 13.3784 17.9155 13.705 17.9155 14.1075V23.7671C17.9154 24.1708 18.2416 24.4973 18.6445 24.4973Z" fill="#2F486A" fill-opacity="0.75"/>
    </g>
    <rect x="0.5" y="0.5" width="146" height="39" rx="3.5" stroke="#DCDFE2"/>
    <defs>
        <clipPath id="clip0">
            <rect width="24.5455" height="24.5455" fill="white" transform="translate(11.2729 7.27246)"/>
        </clipPath>
    </defs>
</svg>
